# fff03cb6_00035_005edd21
o fff03cb6_00035_005edd21
v -0.092043 0.039341 0.023877
v 0.102353 0.073120 0.015178
v 0.159881 -0.095929 0.315973
v -0.017102 -0.105654 0.367972
v 0.150435 -0.264063 0.252375
v -0.026548 -0.273788 0.304374
v 0.071017 -0.087391 0.357599
v 0.057821 -0.298113 0.273272
v -0.042550 -0.194533 0.346888
v 0.070600 -0.196322 0.338243
v 0.179408 -0.182339 0.281675
v -0.000204 0.049409 -0.004190
v -0.066932 -0.102587 0.045627
v -0.105896 -0.038808 0.074271
v -0.092252 0.052385 0.079512
v -0.003966 0.125042 0.069391
v 0.109093 0.060471 0.070575
v 0.144209 -0.065848 0.059915
v 0.072222 -0.108310 0.029730
v 0.000149 -0.123968 0.028006
v -0.096216 -0.285518 0.232693
v 0.021529 -0.334872 0.192388
v 0.169767 -0.279346 0.180940
v 0.220784 -0.149556 0.212545
v 0.186522 -0.057071 0.248351
v 0.045977 0.030388 0.302038
v -0.084780 -0.026523 0.315451
v -0.126380 -0.154145 0.290620
v 0.007938 -0.323441 0.122426
v 0.171825 -0.268632 0.110208
v -0.119421 -0.275918 0.165223
v 0.226084 -0.134118 0.144420
v -0.162566 -0.124433 0.222976
v 0.185347 -0.009623 0.195669
v 0.016877 0.080202 0.235955
v -0.125357 -0.025273 0.250507
v -0.078344 0.138272 -0.025565
v 0.067671 0.137010 -0.021416
v 0.054761 0.006680 0.008960
v -0.063834 -0.001916 0.006630
v 0.022221 0.200176 -0.014392
v -0.030462 0.196546 -0.017074
v -0.042099 0.173848 -0.045088
v 0.029261 0.185407 -0.047446
v 0.006055 0.251744 -0.100843
v -0.018203 0.251739 -0.100913
v -0.029075 0.227099 -0.108505
v 0.014846 0.231052 -0.114387
v -0.012688 0.276483 -0.333525
v -0.020143 0.276127 -0.333107
v -0.020671 0.270363 -0.339474
v -0.009971 0.271864 -0.338972
v -0.019892 0.247382 -0.207928
v 0.006874 0.245291 -0.209341
v 0.000580 0.257991 -0.200233
v -0.015335 0.259114 -0.199478
v 0.170494 0.089149 -0.036113
v 0.149609 0.125908 -0.048755
v 0.118795 0.129488 -0.057053
v 0.153355 0.060970 -0.056725
v 0.194370 0.103932 -0.122611
v 0.183191 0.131174 -0.124177
v 0.156984 0.129429 -0.130740
v 0.170229 0.084748 -0.129645
v 0.218762 0.127461 -0.310075
v 0.217665 0.131974 -0.307884
v 0.213384 0.131697 -0.313043
v 0.215682 0.125321 -0.315271
v 0.172273 0.130759 -0.214556
v 0.180243 0.098729 -0.212163
v 0.194371 0.112496 -0.205309
v 0.189402 0.131365 -0.206507
v 0.000903 -0.240118 0.042114
v -0.017402 0.258818 -0.240333
v -0.019704 0.246625 -0.246201
v 0.003177 0.247757 -0.246902
v -0.003084 0.258964 -0.240962
v 0.192420 0.127911 -0.258182
v 0.182625 0.128694 -0.268893
v 0.186817 0.104430 -0.264243
v 0.197564 0.113344 -0.256794
v -0.033323 0.137341 0.015989
v -0.014852 0.143622 0.017035
v -0.032059 0.128990 0.030950
v -0.013780 0.135479 0.032216
v 0.005815 0.143183 0.017069
v 0.026330 0.136834 0.017376
v 0.003624 0.135517 0.032535
v 0.023943 0.128960 0.032610
v 0.119854 -0.170953 0.039988
v -0.094776 -0.161035 0.073457
v 0.000991 -0.052970 0.036963
v 0.067240 -0.017039 0.032583
v 0.003546 0.109911 0.150094
v -0.129463 0.010625 0.153394
v 0.153883 0.034902 0.123503
v -0.001894 0.255181 -0.299479
v -0.018793 0.253921 -0.300880
v -0.006820 0.264113 -0.294516
v -0.017467 0.263773 -0.294764
v 0.194871 0.113750 -0.294966
v 0.201680 0.119319 -0.283201
v 0.197095 0.128542 -0.281306
v 0.188955 0.128681 -0.288385
v -0.080463 -0.015352 0.039568
v -0.006422 0.153827 0.007541
v -0.066706 0.125218 0.012239
v 0.061218 0.126580 0.015062
v -0.165275 -0.089472 0.136863
v -0.130068 -0.235185 0.131940
v 0.000543 -0.294309 0.074736
v 0.150345 -0.240899 0.067225
v 0.205979 -0.109411 0.095923
v 0.060470 0.106881 0.074138
v 0.097270 0.106906 0.142333
v 0.114525 0.069108 0.223239
v -0.058842 0.113815 0.068446
v -0.071158 0.102047 0.155830
v -0.068063 0.061530 0.243083
v -0.005045 -0.087380 -0.003143
v 0.087374 -0.166993 -0.010849
v 0.124259 -0.131287 -0.014918
v 0.116234 -0.106109 -0.042219
v 0.061877 -0.153784 -0.042253
v 0.118332 -0.192004 -0.120110
v 0.140724 -0.172883 -0.121676
v 0.130891 -0.148528 -0.128239
v 0.092573 -0.175053 -0.127144
v 0.145273 -0.206046 -0.304376
v 0.148590 -0.203935 -0.303958
v 0.145808 -0.196332 -0.309847
v 0.141318 -0.199872 -0.310090
v 0.128952 -0.157573 -0.191407
v 0.102880 -0.177028 -0.209998
v 0.125116 -0.188733 -0.206580
v 0.139909 -0.175161 -0.205617
v 0.138238 -0.178634 -0.241582
v 0.131213 -0.164895 -0.247027
v 0.114708 -0.178953 -0.247525
v 0.127703 -0.187063 -0.242088
v 0.125945 -0.182932 -0.288843
v 0.133074 -0.189134 -0.280945
v 0.139977 -0.184560 -0.280981
v 0.135918 -0.174509 -0.287944
v -0.129937 -0.119625 -0.036440
v -0.093759 -0.156048 -0.040509
v -0.075779 -0.140646 -0.058967
v -0.125686 -0.097884 -0.056658
v -0.151005 -0.146213 -0.111875
v -0.131595 -0.168358 -0.113440
v -0.107368 -0.158213 -0.120003
v -0.134384 -0.120237 -0.118909
v -0.168077 -0.171768 -0.292625
v -0.164808 -0.176517 -0.292293
v -0.160762 -0.174490 -0.298808
v -0.166113 -0.168071 -0.298659
v -0.120434 -0.160914 -0.194533
v -0.140931 -0.134957 -0.193372
v -0.148449 -0.153871 -0.194223
v -0.135858 -0.168927 -0.189893
v -0.136721 -0.168341 -0.237881
v -0.125127 -0.163083 -0.244376
v -0.139485 -0.144326 -0.244228
v -0.145305 -0.156401 -0.238020
v -0.144972 -0.152721 -0.280921
v -0.147606 -0.158753 -0.272446
v -0.142866 -0.165572 -0.272897
v -0.136196 -0.162501 -0.280866
v -0.161487 0.119128 -0.044580
v -0.174782 0.068022 -0.048649
v -0.159682 0.049674 -0.073053
v -0.150671 0.123055 -0.080151
v -0.203679 0.115979 -0.120655
v -0.208284 0.086896 -0.122221
v -0.184991 0.074764 -0.128783
v -0.173083 0.119820 -0.127689
v -0.260580 0.111066 -0.327675
v -0.261695 0.104692 -0.327155
v -0.257841 0.103077 -0.332119
v -0.256919 0.112426 -0.332004
v -0.198874 0.084240 -0.207476
v -0.192062 0.116048 -0.201391
v -0.210996 0.109239 -0.196369
v -0.212766 0.089234 -0.195614
v -0.219720 0.091538 -0.269182
v -0.209795 0.086665 -0.277509
v -0.205521 0.109135 -0.277814
v -0.216687 0.105443 -0.269670
v -0.227701 0.108352 -0.319140
v -0.233434 0.105639 -0.312659
v -0.235233 0.096352 -0.312945
v -0.228571 0.093424 -0.319114
v -0.058093 0.112504 0.041499
v -0.084922 0.045153 0.048666
v -0.005086 0.129599 0.041169
v 0.055568 0.109413 0.044224
v 0.097189 0.067189 0.041152
vt -0.063241 1.099334
vt -0.069191 0.938148
vt -0.063195 0.930923
vt -0.069833 1.075113
vt 0.031713 0.997224
vt 0.387888 0.371056
vt 0.387588 0.370926
vt 0.387113 0.371001
vt 0.387161 0.371141
vt 0.381831 0.373143
vt 0.381290 0.373154
vt 0.381285 0.373310
vt 0.381731 0.373367
vt 0.535862 1.528774
vt 1.711144 1.029958
vt 1.372420 1.029958
vt 0.696055 1.313521
vt 0.377589 1.322032
vt 2.427032 0.101946
vt 2.427032 -0.412024
vt 2.142903 0.101946
vt 2.427032 0.744473
vt 0.110537 1.029958
vt -0.129861 0.744473
vt 1.797011 0.101946
vt 1.902856 -0.167720
vt 1.607597 0.101946
vt 1.957382 0.744473
vt 0.981082 0.101946
vt -0.013447 -0.167720
vt 0.283446 0.101946
vt 0.946760 1.312636
vt 1.168413 1.313521
vt 1.228987 1.029958
vt 0.356788 0.792831
vt 0.627222 1.029958
vt 2.427032 1.029958
vt 1.028771 -0.167720
vt 0.948905 1.029958
vt -0.288672 0.101946
vt -0.326419 -0.403768
vt 0.039632 0.101946
vt 1.525169 0.744473
vt 2.212487 -0.403768
vt 1.263408 0.744473
vt 1.621475 0.493112
vt 2.427032 0.493112
vt 2.017824 0.493112
vt -0.199553 0.493112
vt 0.204556 0.493112
vt 0.587081 0.744473
vt 0.958944 0.332842
vt 0.950618 0.744473
vt -0.570791 0.744473
vt -0.570791 1.029958
vt -0.570791 0.101946
vt -0.570791 -0.412024
vt -0.570791 0.493112
vt 0.033407 0.996670
vt 0.031158 1.000604
vt 0.037275 0.990186
vt 0.031074 0.985986
vt 0.026904 1.001202
vt 0.000000 0.000000
vt 0.000000 1.000000
vt 1.000000 1.000000
vt 1.000000 0.000000
vt 0.442616 0.332842
vt 1.455394 0.332842
vt 1.000000 1.610562
vt -0.391976 1.974349
vt 1.334102 1.873781
vt -0.266973 1.835881
vt 0.929634 1.373678
vt 0.940215 -1.424898
vt -0.536281 1.231684
vt 0.204489 -1.442039
vt 1.288900 1.378761
vt -0.033955 1.295500
vt 1.081288 -0.898419
vt 0.210271 -0.717957
vt 0.917936 -1.256820
vt -0.096775 -1.339146
vt -0.062633 -0.313356
vt 1.237713 -0.208572
vt 0.783365 0.541458
vt 0.783365 0.541267
vt 0.000536 0.541140
vt 0.661154 0.526401
vt 0.661154 0.520127
vt 0.955958 0.523701
vt 0.661154 0.532704
vt 0.955958 0.532803
vt 0.955958 0.539152
vt 0.955958 0.536117
vt 0.955958 0.531365
vt 0.661154 0.527352
vt 0.661154 0.525448
vt 0.661154 0.519451
vt 0.955958 0.523098
vt 1.000000 0.499356
vt 0.661154 0.497505
vt 0.661154 0.497504
vt 1.000000 0.499543
vt 1.000000 0.491509
vt 1.000000 0.482403
vt 0.661154 0.485539
vt 0.661154 0.480453
vt 0.661154 0.489770
vt 0.661154 0.480726
vt 1.000000 0.487376
vt 1.000000 0.482722
vt 1.000000 0.487304
vt 0.661154 0.489766
vt 0.661154 0.485406
vt 1.000000 0.491682
vt 0.661154 0.528217
vt 0.955958 0.530824
vt 0.955958 0.537027
vt 0.661154 0.526265
vt 0.966444 0.537373
vt 0.966444 0.532279
vt 0.663439 0.524755
vt 0.663439 0.523590
vt 0.663439 0.516893
vt 1.000000 0.498126
vt 0.661154 0.496213
vt 0.663439 0.494475
vt 1.010486 0.500594
vt 1.000000 0.489866
vt 1.000000 0.480230
vt 0.661154 0.484004
vt 0.661154 0.478266
vt 0.663439 0.486468
vt 0.663439 0.477074
vt 1.010486 0.488621
vt 1.010486 0.483165
vt 1.000000 0.485982
vt 0.661154 0.488095
vt 0.663439 0.482402
vt 1.010486 0.492467
vt 2.427032 0.332842
vt -0.570791 0.332842
vt 2.083571 0.332842
vt -0.249318 0.332842
vt 0.661154 0.481477
vt 0.663439 0.480038
vt 1.000000 0.483338
vt 1.010486 0.486097
vt 0.661154 0.483025
vt 1.116570 -0.006888
vt 1.000000 0.485166
vt 1.000000 0.485278
vt -0.238705 0.157618
vt 0.661154 0.483526
vt 0.955958 0.524285
vt 0.966444 0.525746
vt 0.616715 0.519373
vt 0.966444 0.531775
vt 0.955958 0.531859
vt 1.000000 0.492400
vt 2.297442 -0.407037
vt -0.429014 -0.407234
vt 1.702182 0.332842
vt 1.357431 0.493112
vt 0.954467 0.493112
vt 0.518297 0.493112
vt 0.125937 0.332842
vt -0.434171 0.101946
vt -0.412512 0.332842
vt -0.382505 0.493112
vt 2.293100 0.101946
vt 2.267846 0.332842
vt 2.226588 0.493112
vt 0.684810 -0.167720
vt 2.295182 -0.167720
vt 2.181482 -0.167720
vt 2.427032 -0.167720
vt -0.570791 -0.167720
vt -0.431560 -0.167720
vt -0.308721 -0.167720
vt 0.988079 -0.454573
vt 0.988079 0.707248
vt 0.002293 0.708748
vt 0.002293 4.888176
vt 0.002293 2.786912
vt 0.988079 2.781651
vt 0.002293 -1.473543
vt 0.988079 -1.476039
vt 0.002293 -0.464936
vt 0.512429 5.714272
vt 0.988079 4.871244
vt 0.988079 6.163538
vt 0.988079 -2.292620
vt 0.002293 -2.302683
vt 0.002293 6.220318
vt 1.003991 -3.665934
vt 1.003991 -2.592681
vt -0.003808 -2.601702
vt 1.003991 2.371055
vt -0.003808 0.445310
vt 1.003991 0.436923
vt -0.003808 4.832871
vt -0.003808 2.480742
vt 1.003991 4.968663
vt -0.003808 -1.108314
vt 1.003991 -1.059773
vt -0.003808 -3.663064
vt 1.003991 -4.319212
vt -0.003808 -4.332794
vt 1.013775 2.341218
vt 0.005976 0.684377
vt 1.013775 0.615339
vt 0.005976 4.862778
vt 0.005976 2.464511
vt 1.013775 4.780945
vt 0.005976 -1.060552
vt 1.013775 -1.001529
vt 0.005976 -2.613867
vt 1.013775 -2.640424
vt 0.005976 -1.894185
vt 1.013775 -3.201599
vt 0.005976 -3.195986
vt 1.013775 -1.920594
vt 0.984422 3.163986
vt 0.015761 0.845276
vt 0.984422 0.797436
vt 0.015761 4.928744
vt 0.015761 3.258712
vt 0.984422 4.722166
vt 0.015761 -0.922196
vt 0.984422 -0.910102
vt 0.015761 -2.460876
vt 0.984422 -2.471045
vt 0.015761 -1.646173
vt 0.984422 -3.034142
vt 0.015761 -3.037788
vt 0.984422 -1.645402
vt 0.984422 -2.679592
vt 0.984422 -2.151683
vt -0.003808 -2.127487
vt 0.984422 -3.465575
vt -0.003808 -2.735848
vt 0.984422 -1.072532
vt -0.003808 -1.034588
vt -0.003808 -3.506195
vt -0.003808 0.689971
vt 0.984422 0.683197
vt -0.003808 2.781158
vt 0.984422 2.621028
vt 0.984422 4.910421
vt -0.003808 4.649260
vt -0.250327 1.560358
vt 1.070205 -0.280905
vt 1.215383 1.067119
vt 0.067370 -0.246490
vt -0.362494 0.810353
vt 0.786306 -0.329454
vt 1.374601 1.335035
vt -0.186952 -0.019793
vt -0.199465 1.280829
vt 0.791297 -0.276487
vt 1.208575 0.888644
vt -0.103959 -0.173833
vt 1.002837 -0.477385
vt 1.189703 1.670156
vt -0.168920 1.605296
vt -0.013687 -0.660211
vt 0.844375 -0.410377
vt 1.267919 1.416608
vt -0.128842 1.148381
vt -0.054163 -0.010398
vt -1.187336 1.227855
vt 1.140118 -0.210450
vt 2.221708 0.918887
vt -0.479125 0.215114
vt -0.211455 1.461879
vt -0.101615 -0.244566
vt 0.791575 -0.454996
vt 1.224433 1.199083
vt 0.482584 -0.575294
vt 0.881871 -0.809852
vt 0.396226 -0.157921
vt 1.163714 2.001670
vt -0.046771 2.048673
vt 0.370722 -0.578594
vt 0.482584 -0.575294
vt 0.573291 -0.145196
vt 0.396226 -0.157921
vt -0.011427 -0.874053
vt -0.129081 -0.376149
vt 0.943579 -0.417801
vt -0.139078 1.409184
vt 1.121069 1.348736
vt -0.331002 1.305430
vt 0.976794 -0.312190
vt 1.316204 0.915899
vt -0.111880 -0.241171
vt -0.333880 1.391866
vt 0.935548 -0.291296
vt 1.318366 0.741512
vt 0.024969 -0.165603
vt -0.022527 1.239238
vt 0.847216 -0.357873
vt 1.404636 1.349974
vt -0.034372 -0.201284
vt -0.209702 1.257923
vt 0.961843 -0.183652
vt 1.198631 1.191685
vt -0.040405 -0.263437
vt -0.148397 -0.590424
vt 0.859213 -0.548947
vt -0.218731 1.488972
vt 1.194116 1.578142
vt 1.127215 -0.734210
vt 1.248733 1.738188
vt -0.279726 1.644243
vt 0.269352 -0.753982
vt -0.177109 1.373601
vt 0.977858 -0.338620
vt 1.162393 1.362779
vt 0.117645 -0.381472
vt -0.166806 1.629316
vt 0.052482 -0.171886
vt 0.969010 -0.690347
vt 1.139100 1.675977
vt -0.003306 -0.558382
vt 0.829843 -0.563138
vt -0.133002 1.551494
vt 1.110530 0.921068
vt 0.855057 -0.772118
vt 1.176832 1.740465
vt -0.099993 1.756007
vt 0.086396 -0.728875
vt 0.469842 0.772639
vt 0.545680 0.000000
vt 0.560600 0.774839
vn -0.898729 -0.149407 0.412266
vn 0.827830 0.020213 0.560615
vn 0.646660 0.176414 0.742098
vn -0.188401 0.087781 0.978161
vn 0.589844 -0.631384 0.503426
vn -0.227026 -0.674534 0.702469
vn 0.262950 0.172746 0.949219
vn 0.211766 -0.792627 0.571750
vn -0.328045 -0.325430 0.886838
vn 0.272635 -0.358925 0.892661
vn 0.728192 -0.289088 0.621421
vn 0.033266 -0.162852 -0.986090
vn -0.431417 -0.075547 -0.898984
vn -0.811206 0.054069 -0.582256
vn -0.914579 0.316745 -0.251430
vn 0.018101 0.989010 0.146737
vn 0.788830 0.420037 -0.448682
vn 0.535878 0.184156 -0.823967
vn 0.147574 0.014083 -0.988951
vn -0.117135 -0.017151 -0.992968
vn -0.624259 -0.708713 0.328674
vn -0.003639 -0.995954 0.089794
vn 0.684346 -0.723414 0.091337
vn 0.966747 -0.095236 0.237339
vn 0.815621 0.371138 0.443869
vn 0.160991 0.631288 0.758655
vn -0.534550 0.392610 0.748407
vn -0.786237 -0.154537 0.598289
vn -0.104219 -0.935126 -0.338641
vn 0.669652 -0.644062 -0.369797
vn -0.727859 -0.667831 -0.155636
vn 0.986433 -0.016869 -0.163293
vn -0.969019 -0.032922 0.244781
vn 0.874156 0.464783 0.140814
vn -0.002315 0.873723 0.486418
vn -0.854947 0.368389 0.365178
vn -0.328073 0.701201 -0.632997
vn 0.369168 0.593914 -0.714830
vn 0.395086 -0.122865 -0.910391
vn -0.423892 -0.050894 -0.904282
vn 0.433393 0.702091 0.565012
vn -0.493894 0.668934 0.555514
vn -0.662900 -0.119473 -0.739114
vn 0.780325 -0.108974 -0.615806
vn 0.512120 0.831302 0.216032
vn -0.510503 0.827401 0.234083
vn -0.875419 -0.360032 -0.322519
vn 0.878977 -0.369877 -0.300984
vn 0.364155 0.915639 -0.170284
vn -0.632941 0.764037 -0.125034
vn -0.563614 -0.189710 -0.803958
vn 0.613324 -0.002524 -0.789827
vn -0.862372 -0.494328 -0.109340
vn 0.843904 -0.507670 -0.173485
vn 0.549017 0.835811 -0.000710
vn -0.525917 0.850358 0.017394
vn 0.844409 -0.043508 0.533930
vn 0.461739 0.810435 0.360546
vn -0.510115 0.659605 -0.551999
vn 0.170204 -0.950575 -0.259689
vn 0.973823 -0.195673 0.115679
vn 0.543360 0.822609 0.167552
vn -0.750733 0.620994 -0.225314
vn -0.203273 -0.924245 -0.323188
vn 0.972373 -0.198759 -0.122415
vn 0.700222 0.706148 0.105092
vn -0.132540 0.688479 -0.713043
vn 0.267150 -0.394248 -0.879318
vn -0.777681 0.610296 -0.150832
vn -0.259771 -0.952224 -0.160590
vn 0.966501 -0.256323 0.013189
vn 0.591536 0.806173 0.013075
vn -0.203903 -0.363716 -0.908920
vn -0.659709 0.749399 0.056438
vn -0.738796 -0.673055 -0.034301
vn 0.858948 -0.501924 -0.101388
vn 0.499240 0.866397 0.010705
vn 0.611772 0.789219 0.053549
vn -0.745665 0.631621 -0.212223
vn -0.296215 -0.922334 -0.248106
vn 0.956276 -0.286797 0.057302
vn -0.306236 0.819981 0.483582
vn -0.316181 0.822087 0.473500
vn -0.314755 0.821795 0.474955
vn -0.324651 0.823758 0.464784
vn 0.256513 0.851048 0.458169
vn 0.263376 0.843676 0.467807
vn 0.261758 0.845433 0.465537
vn 0.268622 0.837891 0.475163
vn 0.322316 -0.099708 -0.941366
vn -0.604807 -0.203042 -0.770054
vn -0.313992 -0.871941 -0.375669
vn 0.840243 0.078568 -0.536487
vn -0.003300 0.975737 0.218922
vn -0.910409 0.411076 -0.046607
vn 0.827288 0.501373 -0.253417
vn 0.849652 -0.473080 -0.232996
vn -0.673355 -0.715151 -0.187488
vn 0.519552 0.847377 0.109626
vn -0.695457 0.700403 0.160545
vn -0.309188 -0.797237 -0.518474
vn 0.910320 -0.320801 0.261540
vn 0.459491 0.853582 0.245489
vn -0.732161 0.590906 -0.338778
vn -0.915789 -0.101658 -0.388583
vn -0.047921 0.591999 0.804513
vn -0.533273 0.595860 0.600475
vn 0.469669 0.680843 0.562017
vn -0.950766 0.081924 -0.298887
vn -0.796950 -0.398558 -0.453897
vn -0.193916 -0.703848 -0.683370
vn 0.485690 -0.420836 -0.766161
vn 0.821003 0.121173 -0.557916
vn 0.430762 0.900784 -0.055068
vn 0.458824 0.887749 0.037193
vn 0.523838 0.729345 0.440056
vn -0.559289 0.828972 -0.001289
vn -0.524490 0.828863 0.194670
vn -0.478871 0.722653 0.498452
vn -0.046568 -0.812691 -0.580831
vn 0.025716 -0.803312 0.595003
vn 0.841755 -0.117293 0.526964
vn 0.547265 0.695925 -0.464961
vn -0.836474 -0.388356 -0.386641
vn 0.101883 -0.987694 0.118666
vn 0.956837 -0.268902 0.110249
vn 0.375684 0.893163 -0.247229
vn -0.959218 -0.121883 -0.255040
vn 0.000894 -0.991885 -0.127132
vn 0.881983 -0.469704 -0.038524
vn 0.507485 0.350661 -0.787080
vn -0.436947 -0.294851 -0.849788
vn 0.203847 0.972238 -0.114889
vn -0.975178 -0.034599 -0.218703
vn 0.124066 -0.992105 -0.018325
vn 0.992802 -0.119601 -0.006255
vn 0.977337 -0.211055 0.016409
vn 0.180272 0.968301 -0.172903
vn -0.971150 -0.061498 -0.230404
vn 0.061485 -0.998107 0.001698
vn -0.907971 0.062053 -0.414413
vn -0.159361 -0.958707 0.235554
vn 0.959582 -0.157502 0.233228
vn 0.233422 0.885689 -0.401334
vn -0.805650 -0.171438 0.567043
vn 0.027805 -0.884576 0.465566
vn 0.824115 -0.262589 -0.501878
vn -0.504750 0.799635 -0.325286
vn -0.980805 -0.131009 0.144423
vn -0.266760 -0.951408 0.153825
vn 0.888253 -0.354796 -0.291764
vn -0.124955 0.936771 -0.326873
vn -0.985431 -0.080668 0.149727
vn -0.403056 -0.905407 0.133358
vn 0.187917 -0.550157 -0.813643
vn -0.561010 0.395294 -0.727331
vn 0.969116 -0.220885 -0.109651
vn -0.176502 0.970567 -0.163849
vn -0.988998 -0.146435 -0.020974
vn -0.207126 -0.978291 0.006791
vn -0.237899 -0.971153 -0.016291
vn 0.944929 -0.258861 -0.200251
vn -0.072553 0.979679 -0.186990
vn -0.994958 -0.099964 -0.008082
vn -0.000552 0.923198 -0.384323
vn -0.940673 0.087636 0.327803
vn -0.137726 -0.970691 0.196955
vn 0.855235 -0.173383 -0.488376
vn -0.589446 0.643372 0.488494
vn -0.818316 -0.327934 0.472037
vn -0.059903 -0.877077 -0.476601
vn 0.438353 0.767388 -0.467934
vn -0.713565 0.680013 0.168543
vn -0.897202 -0.410331 0.163272
vn 0.300966 -0.903797 -0.304253
vn 0.639393 0.697936 -0.322587
vn -0.772882 0.607156 0.184430
vn -0.921579 -0.330628 0.203413
vn -0.315595 -0.551431 -0.772220
vn -0.151864 0.724420 -0.672423
vn 0.490336 -0.862015 -0.128455
vn 0.612489 0.770863 -0.175010
vn -0.782475 0.620526 0.051768
vn -0.843094 -0.534861 0.055820
vn -0.865615 -0.480686 0.140184
vn 0.460282 -0.856744 -0.232659
vn 0.673182 0.693464 -0.256775
vn -0.708676 0.693984 0.127141
vn 0.536730 0.690764 -0.484526
vn -0.505689 0.694129 0.512312
vn -0.674050 -0.621754 0.398846
vn 0.369632 -0.740094 -0.561812
vn -0.636183 0.735144 0.234165
vn -0.979861 0.191476 -0.056649
vn -0.015477 0.921196 0.388791
vn 0.491982 0.827491 0.270577
vn 0.973863 0.225405 -0.027998
g fff03cb6_00035_005edd21_e3
f 40/59/40 12/5/12 120/60/120
f 175/73/175 182/82/182 176/72/176
f 123/319/123 128/320/128 124/321/124
f 12/5/12 40/61/40 37/62/37
f 12/5/12 39/63/39 120/60/120
f 123/319/123 127/322/127 128/320/128
f 38/1/38 12/2/12 37/3/37
f 12/2/12 38/1/38 39/4/39
f 52/287/52 97/288/97 98/289/98
f 97/282/97 76/284/76 75/285/75
f 132/75/132 141/151/141 144/154/144
f 141/331/141 139/332/139 138/333/138
f 138/327/138 139/328/139 133/329/133
f 144/334/144 141/331/141 138/333/138
f 39/253/39 124/254/124 120/255/120
f 124/254/124 39/253/39 123/256/123
f 59/261/59 64/262/64 60/263/60
f 59/261/59 63/264/63 64/262/64
f 75/291/75 76/292/76 53/293/53
f 98/290/98 97/282/97 75/285/75
f 63/73/63 69/83/69 70/82/70
f 80/265/80 70/266/70 69/267/69
f 37/273/37 44/274/44 38/275/38
f 44/274/44 37/273/37 43/276/43
f 68/75/68 101/151/101 104/154/104
f 101/269/101 80/270/80 79/271/79
f 79/268/79 80/265/80 69/267/69
f 104/272/104 101/269/101 79/271/79
f 47/71/47 54/80/54 48/70/48
f 52/281/52 98/283/98 51/286/51
f 76/292/76 54/294/54 53/293/53
f 47/71/47 53/81/53 54/80/54
f 127/323/127 133/324/133 134/325/134
f 139/328/139 134/330/134 133/329/133
f 43/277/43 47/278/47 48/279/48
f 43/277/43 48/279/48 44/280/44
f 38/257/38 60/258/60 39/259/39
f 60/258/60 38/257/38 59/260/59
f 68/75/68 104/154/104 67/77/67
f 63/73/63 70/82/70 64/72/64
f 132/75/132 144/154/144 131/77/131
f 127/323/127 134/325/134 128/326/128
f 147/307/147 152/308/152 148/309/148
f 147/307/147 151/310/151 152/308/152
f 156/75/156 165/151/165 168/154/168
f 165/315/165 163/316/163 162/317/162
f 162/311/162 163/312/163 157/313/157
f 168/318/168 165/315/165 162/317/162
f 120/303/120 148/304/148 40/305/40
f 148/304/148 120/303/120 147/306/147
f 151/73/151 157/83/157 158/82/158
f 163/312/163 158/314/158 157/313/157
f 156/75/156 168/154/168 155/77/155
f 151/73/151 158/82/158 152/72/152
f 171/295/171 176/296/176 172/297/172
f 171/295/171 175/298/175 176/296/176
f 180/75/180 189/151/189 192/154/192
f 189/151/189 187/78/187 186/76/186
f 186/84/186 187/85/187 181/79/181
f 192/154/192 189/151/189 186/76/186
f 40/299/40 172/300/172 37/301/37
f 172/300/172 40/299/40 171/302/171
f 175/73/175 181/83/181 182/82/182
f 187/85/187 182/74/182 181/79/181
f 180/75/180 192/154/192 179/77/179
f 62/104/62 72/161/72 69/109/69
f 48/127/48 54/139/54 55/130/55
f 47/125/47 43/124/43 42/159/42
f 77/138/77 55/130/55 54/139/54
f 127/99/127 122/96/122 126/100/126
f 126/104/126 136/161/136 133/109/133
f 44/120/44 45/156/45 41/118/41
f 129/106/129 142/152/142 141/150/141
f 47/125/47 42/159/42 46/157/46
f 138/115/138 133/109/133 136/116/136
f 104/155/104 79/115/79 78/111/78
f 59/98/59 38/97/38 58/160/58
f 108/95/108 58/160/58 38/97/38
f 122/96/122 127/99/127 123/98/123
f 43/124/43 37/123/37 42/122/42
f 139/107/139 140/113/140 134/114/134
f 57/93/57 39/92/39 60/89/60
f 141/150/141 142/152/142 139/107/139
f 124/89/124 125/91/125 121/93/121
f 39/92/39 57/93/57 2/94/2
f 65/106/65 101/150/101 68/108/68
f 107/121/107 42/122/42 37/123/37
f 41/118/41 38/117/38 44/120/44
f 38/117/38 41/118/41 108/119/108
f 137/111/137 138/115/138 136/116/136
f 62/104/62 69/109/69 63/103/63
f 60/89/60 64/90/64 61/91/61
f 67/110/67 103/153/103 66/112/66
f 67/110/67 104/155/104 103/153/103
f 102/152/102 81/113/81 80/107/80
f 143/153/143 144/155/144 137/111/137
f 51/135/51 98/147/98 100/149/100
f 100/149/100 98/147/98 74/136/74
f 74/136/74 75/140/75 56/141/56
f 52/9/52 51/6/51 49/8/49
f 51/6/51 50/7/50 49/8/49
f 128/102/128 134/114/134 135/105/135
f 140/113/140 135/105/135 134/114/134
f 63/99/63 58/96/58 62/100/62
f 64/102/64 71/105/71 61/101/61
f 97/146/97 99/148/99 76/132/76
f 76/132/76 77/138/77 54/139/54
f 51/135/51 100/149/100 50/137/50
f 128/102/128 135/105/135 125/101/125
f 142/152/142 140/113/140 139/107/139
f 65/106/65 102/152/102 101/150/101
f 45/156/45 44/120/44 48/158/48
f 37/92/37 169/93/169 107/94/107
f 49/131/49 99/148/99 97/146/97
f 98/147/98 75/140/75 74/136/74
f 144/155/144 138/115/138 137/111/137
f 2/86/2 93/87/93 39/88/39
f 123/98/123 39/97/39 122/160/122
f 131/110/131 144/155/144 143/153/143
f 79/115/79 69/109/69 72/116/72
f 75/140/75 53/134/53 56/141/56
f 81/113/81 71/105/71 70/114/70
f 64/102/64 70/114/70 71/105/71
f 49/131/49 97/146/97 52/133/52
f 131/110/131 143/153/143 130/112/130
f 93/95/93 122/160/122 39/97/39
f 121/93/121 120/92/120 124/89/124
f 124/89/124 128/90/128 125/91/125
f 103/153/103 104/155/104 78/111/78
f 78/111/78 79/115/79 72/116/72
f 126/104/126 133/109/133 127/103/127
f 129/106/129 141/150/141 132/108/132
f 120/92/120 121/93/121 92/94/92
f 60/89/60 61/91/61 57/93/57
f 48/127/48 55/130/55 45/126/45
f 101/150/101 102/152/102 80/107/80
f 80/107/80 81/113/81 70/114/70
f 99/148/99 77/138/77 76/132/76
f 46/129/46 53/134/53 47/128/47
f 58/96/58 63/99/63 59/98/59
f 46/129/46 56/141/56 53/134/53
f 151/99/151 146/96/146 150/100/150
f 150/104/150 160/161/160 157/109/157
f 153/106/153 166/152/166 165/150/165
f 162/115/162 157/109/157 160/116/160
f 146/96/146 151/99/151 147/98/147
f 163/107/163 164/113/164 158/114/158
f 165/150/165 166/152/166 163/107/163
f 148/89/148 149/91/149 145/93/145
f 161/111/161 162/115/162 160/116/160
f 167/153/167 168/155/168 161/111/161
f 152/102/152 158/114/158 159/105/159
f 164/113/164 159/105/159 158/114/158
f 152/102/152 159/105/159 149/101/149
f 166/152/166 164/113/164 163/107/163
f 168/155/168 162/115/162 161/111/161
f 147/98/147 120/97/120 146/160/146
f 155/110/155 168/155/168 167/153/167
f 155/110/155 167/153/167 154/112/154
f 92/95/92 146/160/146 120/97/120
f 145/93/145 40/92/40 148/89/148
f 148/89/148 152/90/152 149/91/149
f 150/104/150 157/109/157 151/103/151
f 153/106/153 165/150/165 156/108/156
f 40/92/40 145/93/145 105/94/105
f 175/99/175 170/96/170 174/100/174
f 174/104/174 184/161/184 181/109/181
f 177/106/177 190/152/190 189/150/189
f 186/115/186 181/109/181 184/116/184
f 170/96/170 175/99/175 171/98/171
f 187/107/187 188/113/188 182/114/182
f 189/150/189 190/152/190 187/107/187
f 172/89/172 173/91/173 169/93/169
f 185/111/185 186/115/186 184/116/184
f 191/153/191 192/155/192 185/111/185
f 176/102/176 182/114/182 183/105/183
f 188/113/188 183/105/183 182/114/182
f 176/102/176 183/105/183 173/101/173
f 190/152/190 188/113/188 187/107/187
f 192/155/192 186/115/186 185/111/185
f 171/98/171 40/97/40 170/160/170
f 179/110/179 192/155/192 191/153/191
f 179/110/179 191/153/191 178/112/178
f 1/95/1 170/160/170 40/97/40
f 169/93/169 37/92/37 172/89/172
f 172/89/172 176/90/176 173/91/173
f 174/104/174 181/109/181 175/103/175
f 177/106/177 189/150/189 180/108/180
f 1/335/1 40/336/40 105/337/105
g fff03cb6_00035_005edd21_e4
f 10/14/10 4/15/4 9/16/9
f 10/14/10 5/17/5 11/18/11
f 193/176/193 195/178/195 107/162/107
f 26/54/26 3/23/3 25/24/25
f 106/57/106 195/179/195 108/163/108
f 28/43/28 4/15/4 27/28/27
f 195/178/195 106/20/106 107/162/107
f 22/39/22 6/33/6 21/34/21
f 24/35/24 11/18/11 23/36/23
f 8/32/8 10/14/10 6/33/6
f 7/55/7 10/14/10 3/23/3
f 108/163/108 196/180/196 197/181/197
f 8/32/8 22/39/22 23/36/23
f 4/15/4 26/22/26 27/28/27
f 108/163/108 195/179/195 196/180/196
f 7/37/7 4/15/4 10/14/10
f 10/14/10 9/16/9 6/33/6
f 10/14/10 11/18/11 3/23/3
f 8/32/8 5/17/5 10/14/10
f 9/16/9 21/34/21 6/33/6
f 3/23/3 24/35/24 25/24/25
f 9/16/9 28/43/28 21/34/21
f 9/16/9 4/15/4 28/43/28
f 7/37/7 26/22/26 4/15/4
f 105/26/105 194/177/194 1/44/1
f 7/55/7 3/23/3 26/54/26
f 107/162/107 1/44/1 194/177/194
f 11/18/11 24/35/24 3/23/3
f 108/163/108 197/181/197 2/41/2
f 11/18/11 5/17/5 23/36/23
f 8/32/8 23/36/23 5/17/5
f 8/32/8 6/33/6 22/39/22
f 2/41/2 197/181/197 93/30/93
f 193/176/193 107/162/107 194/177/194
f 14/25/14 105/26/105 13/27/13
f 20/29/20 92/175/92 19/31/19
f 92/38/92 20/29/20 13/27/13
f 93/30/93 197/181/197 17/40/17
f 196/180/196 114/169/114 17/40/17
f 14/25/14 13/27/13 91/69/91
f 109/164/109 95/144/95 14/25/14
f 95/144/95 117/172/117 15/21/15
f 114/169/114 115/170/115 17/40/17
f 19/31/19 93/30/93 18/42/18
f 113/168/113 18/42/18 96/145/96
f 93/30/93 17/40/17 18/42/18
f 73/52/73 19/31/19 90/68/90
f 92/38/92 13/27/13 105/26/105
f 73/52/73 13/27/13 20/29/20
f 91/69/91 13/27/13 73/52/73
f 20/29/20 19/31/19 73/52/73
f 90/68/90 19/31/19 18/42/18
f 18/42/18 17/40/17 96/145/96
f 94/143/94 114/169/114 16/56/16
f 94/142/94 117/172/117 118/173/118
f 95/144/95 15/21/15 14/25/14
f 14/25/14 91/69/91 109/164/109
f 113/168/113 112/167/112 90/68/90
f 195/179/195 16/56/16 196/180/196
f 109/164/109 91/69/91 110/165/110
f 111/166/111 91/69/91 73/52/73
f 111/166/111 110/165/110 91/69/91
f 73/52/73 112/167/112 111/166/111
f 18/42/18 113/168/113 90/68/90
f 73/52/73 90/68/90 112/167/112
f 197/181/197 196/180/196 17/40/17
f 94/143/94 115/170/115 114/169/114
f 115/170/115 96/145/96 17/40/17
f 94/142/94 16/19/16 117/172/117
f 16/19/16 195/178/195 193/176/193
f 118/173/118 117/172/117 95/144/95
f 92/175/92 93/30/93 19/31/19
f 194/177/194 105/26/105 14/25/14
f 117/172/117 193/176/193 15/21/15
f 16/19/16 193/176/193 117/172/117
f 14/25/14 15/21/15 194/177/194
f 193/176/193 194/177/194 15/21/15
f 196/180/196 16/56/16 114/169/114
f 119/174/119 95/144/95 36/48/36
f 27/28/27 119/174/119 36/48/36
f 119/174/119 118/173/118 95/144/95
f 115/170/115 116/171/116 96/145/96
f 26/54/26 116/171/116 35/58/35
f 115/170/115 35/58/35 116/171/116
f 32/50/32 112/167/112 113/168/113
f 34/49/34 113/168/113 96/145/96
f 32/50/32 30/51/30 112/167/112
f 31/45/31 33/46/33 110/165/110
f 33/46/33 95/144/95 109/164/109
f 111/166/111 30/51/30 29/53/29
f 29/53/29 31/45/31 110/165/110
f 111/166/111 112/167/112 30/51/30
f 33/46/33 109/164/109 110/165/110
f 29/53/29 110/165/110 111/166/111
f 35/47/35 94/142/94 118/173/118
f 116/171/116 34/49/34 96/145/96
f 32/50/32 113/168/113 34/49/34
f 35/47/35 118/173/118 119/174/119
f 22/39/22 21/34/21 29/53/29
f 29/53/29 30/51/30 22/39/22
f 22/39/22 30/51/30 23/36/23
f 24/35/24 30/51/30 32/50/32
f 28/43/28 31/45/31 21/34/21
f 21/34/21 31/45/31 29/53/29
f 24/35/24 23/36/23 30/51/30
f 32/50/32 34/49/34 24/35/24
f 28/43/28 27/28/27 36/48/36
f 33/46/33 31/45/31 28/43/28
f 24/35/24 34/49/34 25/24/25
f 26/54/26 25/24/25 116/171/116
f 116/171/116 25/24/25 34/49/34
f 26/22/26 119/174/119 27/28/27
f 36/48/36 95/144/95 33/46/33
f 28/43/28 36/48/36 33/46/33
f 94/143/94 35/58/35 115/170/115
f 26/22/26 35/47/35 119/174/119
g fff03cb6_00035_005edd21_e5
f 122/225/122 125/226/125 126/227/126
f 74/182/74 56/183/56 55/184/55
f 131/10/131 130/11/130 129/12/129
f 132/13/132 131/10/131 129/12/129
f 41/185/41 45/186/45 46/187/46
f 92/228/92 121/229/121 93/230/93
f 122/225/122 93/230/93 121/229/121
f 121/229/121 125/226/125 122/225/122
f 103/239/103 78/240/78 81/241/81
f 125/226/125 135/231/135 136/232/136
f 66/242/66 103/239/103 102/243/102
f 142/233/142 143/234/143 140/235/140
f 78/240/78 72/244/72 71/245/71
f 81/241/81 78/240/78 71/245/71
f 66/242/66 102/243/102 65/246/65
f 99/188/99 100/189/100 77/190/77
f 77/190/77 74/182/74 55/184/55
f 61/247/61 72/244/72 62/248/62
f 191/197/191 185/198/185 188/199/188
f 125/226/125 136/232/136 126/227/126
f 102/243/102 103/239/103 81/241/81
f 61/247/61 71/245/71 72/244/72
f 57/249/57 61/247/61 58/250/58
f 106/191/106 42/192/42 107/193/107
f 130/236/130 142/233/142 129/237/129
f 140/235/140 137/238/137 135/231/135
f 137/238/137 136/232/136 135/231/135
f 100/189/100 74/182/74 77/190/77
f 130/236/130 143/234/143 142/233/142
f 50/194/50 99/188/99 49/195/49
f 45/186/45 56/183/56 46/187/46
f 67/10/67 66/11/66 65/12/65
f 68/13/68 67/10/67 65/12/65
f 41/185/41 46/187/46 42/192/42
f 45/186/45 55/184/55 56/183/56
f 58/250/58 108/251/108 57/249/57
f 50/194/50 100/189/100 99/188/99
f 2/252/2 57/249/57 108/251/108
f 42/192/42 106/191/106 41/185/41
f 108/196/108 41/185/41 106/191/106
f 143/234/143 137/238/137 140/235/140
f 58/250/58 61/247/61 62/248/62
f 146/211/146 149/212/149 150/213/150
f 155/10/155 154/11/154 153/12/153
f 156/13/156 155/10/155 153/12/153
f 105/214/105 145/215/145 92/216/92
f 146/211/146 92/216/92 145/215/145
f 145/215/145 149/212/149 146/211/146
f 149/212/149 159/217/159 160/218/160
f 166/219/166 167/220/167 164/221/164
f 149/212/149 160/218/160 150/213/150
f 154/222/154 166/219/166 153/223/153
f 164/221/164 161/224/161 159/217/159
f 161/224/161 160/218/160 159/217/159
f 154/222/154 167/220/167 166/219/166
f 167/220/167 161/224/161 164/221/164
f 170/200/170 173/201/173 174/202/174
f 179/10/179 178/11/178 177/12/177
f 180/13/180 179/10/179 177/12/177
f 107/203/107 169/204/169 1/205/1
f 170/200/170 1/205/1 169/204/169
f 169/204/169 173/201/173 170/200/170
f 173/201/173 183/206/183 184/207/184
f 190/208/190 191/197/191 188/199/188
f 173/201/173 184/207/184 174/202/174
f 178/209/178 190/208/190 177/210/177
f 188/199/188 185/198/185 183/206/183
f 185/198/185 184/207/184 183/206/183
f 178/209/178 191/197/191 190/208/190
g fff03cb6_00035_005edd21_e1
f 85/67/85 83/64/83 84/66/84
f 83/64/83 82/65/82 84/66/84
f 89/67/89 87/64/87 88/66/88
f 87/64/87 86/65/86 88/66/88
