# fff0f8fb_00018_00056516
o fff0f8fb_00018_00056516
v -0.180089 -0.392117 0.164704
v 0.172030 -0.392117 0.164704
v -0.233537 0.261606 0.141754
v 0.226616 0.261606 0.141754
v -0.110127 -0.269160 0.339822
v 0.103528 -0.269160 0.339822
v -0.169368 0.132677 0.484343
v 0.162447 0.132677 0.484343
v -0.129207 -0.367096 0.300384
v 0.121156 -0.367096 0.300384
v -0.145465 -0.224669 0.067369
v 0.137405 -0.224669 0.067369
v -0.136039 0.104725 0.028874
v 0.129471 0.104725 0.028874
v 0.156845 0.038559 0.308349
v 0.156845 0.119088 0.179281
v 0.156844 0.050790 0.081742
v 0.156844 -0.098037 0.113271
v 0.149131 -0.198418 0.250119
v 0.149132 -0.130120 0.312186
v 0.281440 0.077457 0.317912
v 0.281440 0.178372 0.156170
v 0.310332 0.092784 0.033938
v 0.310332 -0.093719 0.073448
v 0.195881 -0.194568 0.263672
v 0.190962 -0.148818 0.305249
v 0.373321 -0.008131 0.195680
v 0.155789 -0.363305 0.392707
v 0.155789 -0.349560 0.427985
v 0.189188 -0.365045 0.388242
v 0.189188 -0.347820 0.432450
v 0.150518 -0.430762 0.402158
v 0.156248 -0.408295 0.471488
v 0.189705 -0.433606 0.401770
v 0.187544 -0.405452 0.471733
v -0.009646 -0.447516 0.277309
v -0.009648 -0.481392 0.164704
v -0.009644 -0.385838 0.056494
v -0.004423 -0.269161 0.411965
v 0.134242 -0.418495 0.435898
v 0.210736 -0.419448 0.433280
v 0.177157 -0.437487 0.447474
v -0.000999 0.231208 0.562619
v -0.000999 0.386248 0.141754
v 0.237755 0.314020 0.343330
v -0.000152 0.440088 0.354546
v -0.249557 0.319945 0.327588
v -0.137636 0.407729 0.343192
v 0.136817 0.403296 0.349619
v 0.192960 0.067501 0.172512
v -0.210029 -0.025913 0.172512
v -0.157386 0.038559 0.308349
v -0.157386 0.119088 0.179281
v -0.157385 0.050790 0.081742
v -0.157385 -0.098037 0.113271
v -0.149673 -0.198418 0.250119
v -0.149673 -0.130120 0.312186
v -0.281981 0.077457 0.317912
v -0.281981 0.178372 0.156170
v -0.310873 0.092784 0.033938
v -0.310873 -0.093719 0.073448
v -0.196423 -0.194568 0.263672
v -0.191503 -0.148818 0.305249
v -0.373863 -0.008131 0.195680
v -0.156330 -0.363305 0.392707
v -0.156330 -0.349560 0.427985
v -0.189730 -0.365045 0.388242
v -0.189730 -0.347820 0.432450
v -0.151059 -0.430762 0.402158
v -0.156789 -0.408295 0.471488
v -0.190246 -0.433606 0.401770
v -0.188085 -0.405452 0.471733
v -0.134783 -0.418495 0.435898
v -0.211277 -0.419448 0.433280
v -0.177698 -0.437487 0.447474
vt 1.119765 1.568717
vt 1.061624 1.574046
vt 1.073382 1.849157
vt 1.100043 1.841330
vt 1.113959 1.844902
vt 1.096665 1.562233
vt 1.183488 1.244200
vt 1.159875 1.284166
vt 1.095059 1.583977
vt 1.063305 1.841010
vt 1.064007 1.279892
vt 1.049845 1.194530
vt 1.107540 1.239646
vt 1.163256 1.011098
vt 1.063022 1.013384
vt 1.149840 1.125787
vt 1.078537 1.134608
vt 1.053020 1.957539
vt 1.149568 1.975945
vt 1.132738 1.971626
vt 1.040832 1.947686
vt 1.092469 2.016413
vt 1.089930 2.011273
vt 1.091045 2.013530
vt 1.119765 1.568717
vt 1.113959 1.844902
vt 1.096665 1.562233
vt 1.100043 1.841330
vt 1.183488 1.244200
vt 1.159875 1.284166
vt 1.163256 1.011098
vt 1.149840 1.125787
vt 1.107540 1.239646
vt 1.073382 1.849157
vt 1.061624 1.574046
vt 1.063305 1.841010
vt 1.095059 1.583977
vt 1.132738 1.971626
vt 1.089930 2.011273
vt 1.149568 1.975945
vt 1.091045 2.013530
vt 1.053020 1.957539
vt 1.040832 1.947686
vt 1.092469 2.016413
vt 1.078537 1.134608
vt 1.049845 1.194530
vt 1.064007 1.279892
vt 1.063022 1.013384
vt 1.460353 1.666395
vt 1.606860 1.230316
vt 1.609901 1.773322
vt 1.512973 1.230317
vt 1.732309 1.960073
vt 1.821964 1.863190
vt 1.496025 1.124036
vt 1.602219 1.036763
vt 1.718399 1.124036
vt 1.702742 1.230317
vt 1.755074 1.666395
vt 1.610653 2.000000
vt 1.488538 1.964884
vt 1.389130 1.869619
vt 1.732830 1.278599
vt 1.481586 1.278599
vt 1.725785 1.636060
vt 1.489956 1.636060
vt 1.602222 1.103696
vt 1.424237 1.494291
vt 1.403359 1.806309
vt 1.782174 1.595665
vt 1.812070 1.806309
vt 1.450833 1.096883
vt 1.763585 1.096883
vt 1.602218 1.000000
vt 1.609901 1.941573
vn -0.826334 -0.539407 -0.161903
vn 0.823556 -0.542227 -0.166570
vn -0.773440 0.379203 -0.507932
vn 0.803523 0.354137 -0.478474
vn -0.758920 -0.207179 0.617347
vn 0.768877 -0.196688 0.608393
vn -0.703429 -0.080018 0.706247
vn 0.725804 -0.104141 0.679973
vn -0.694558 -0.431091 0.575977
vn 0.684435 -0.449712 0.573854
vn -0.548382 -0.120607 -0.827485
vn 0.567643 -0.115895 -0.815077
vn -0.420678 0.088058 -0.902926
vn 0.457353 0.078820 -0.885785
vn -0.198229 0.416860 0.887092
vn -0.406541 0.913495 0.015873
vn -0.356545 0.293435 -0.887002
vn -0.154235 -0.606835 -0.779719
vn -0.307664 -0.701115 -0.643258
vn -0.230763 0.153574 0.960814
vn 0.367193 0.429628 0.824978
vn 0.227143 0.972123 -0.058154
vn 0.376817 0.402550 -0.834243
vn 0.456979 -0.586658 -0.668583
vn 0.713591 -0.651516 -0.257518
vn 0.638734 -0.026802 0.768960
vn 0.975115 -0.113311 0.190553
vn -0.776509 -0.189380 -0.600973
vn -0.721749 0.426758 0.544937
vn 0.682627 -0.231067 -0.693274
vn 0.621169 0.481175 0.618562
vn -0.512977 -0.612932 -0.600973
vn -0.455207 -0.086325 0.886191
vn 0.398154 -0.675886 -0.620202
vn 0.433420 -0.010941 0.901125
vn -0.014146 -0.853941 0.520177
vn -0.011317 -0.981832 -0.189413
vn -0.012062 -0.449824 -0.893036
vn -0.003295 -0.425672 0.904872
vn -0.928863 -0.334513 0.159104
vn 0.940059 -0.325121 0.102888
vn 0.073577 -0.915376 0.395819
vn 0.000158 0.252202 0.967674
vn 0.012622 0.788859 -0.614445
vn 0.887822 0.406251 0.216179
vn 0.009156 0.964513 0.263878
vn -0.870643 0.454356 0.188524
vn -0.476383 0.856920 0.196842
vn 0.507590 0.840084 0.191338
vn 0.979030 -0.156801 -0.130052
vn -0.983477 -0.129625 -0.126372
vn 0.198229 0.416860 0.887092
vn 0.406541 0.913495 0.015873
vn 0.356545 0.293435 -0.887002
vn 0.154235 -0.606836 -0.779719
vn 0.307664 -0.701115 -0.643258
vn 0.230763 0.153574 0.960814
vn -0.367193 0.429628 0.824978
vn -0.227144 0.972123 -0.058154
vn -0.376817 0.402550 -0.834243
vn -0.456979 -0.586658 -0.668583
vn -0.713591 -0.651516 -0.257518
vn -0.638734 -0.026802 0.768960
vn -0.975115 -0.113312 0.190553
vn 0.776509 -0.189380 -0.600973
vn 0.721749 0.426758 0.544937
vn -0.682627 -0.231067 -0.693274
vn -0.621169 0.481175 0.618563
vn 0.512978 -0.612932 -0.600973
vn 0.455207 -0.086325 0.886191
vn -0.398154 -0.675886 -0.620202
vn -0.433420 -0.010941 0.901126
vn 0.928863 -0.334512 0.159104
vn -0.940059 -0.325121 0.102888
vn -0.073576 -0.915376 0.395819
g fff0f8fb_00018_00056516_e3
f 20/1/20 31/5/31 26/6/26
f 31/5/31 20/1/20 29/4/29
f 20/1/20 21/7/21 15/8/15
f 20/1/20 26/6/26 21/7/21
f 15/8/15 22/14/22 16/16/16
f 15/8/15 21/7/21 22/14/22
f 27/13/27 21/7/21 26/6/26
f 28/3/28 19/2/19 30/10/30
f 25/9/25 30/10/30 19/2/19
f 27/13/27 22/14/22 21/7/21
f 57/25/57 63/27/63 68/26/68
f 68/26/68 66/28/66 57/25/57
f 57/25/57 52/30/52 58/29/58
f 57/25/57 58/29/58 63/27/63
f 52/30/52 53/32/53 59/31/59
f 52/30/52 59/31/59 58/29/58
f 64/33/64 63/27/63 58/29/58
f 65/34/65 67/36/67 56/35/56
f 62/37/62 56/35/56 67/36/67
f 64/33/64 58/29/58 59/31/59
g fff0f8fb_00018_00056516_e5
f 31/5/31 29/4/29 33/20/33
f 41/23/41 31/5/31 35/19/35
f 33/20/33 35/19/35 31/5/31
f 68/26/68 70/38/70 66/28/66
f 74/39/74 72/40/72 68/26/68
f 70/38/70 68/26/68 72/40/72
g fff0f8fb_00018_00056516_e6
f 42/24/42 41/23/41 35/19/35
f 32/18/32 34/21/34 42/24/42
f 32/18/32 42/24/42 40/22/40
f 42/24/42 34/21/34 41/23/41
f 33/20/33 42/24/42 35/19/35
f 40/22/40 42/24/42 33/20/33
f 75/41/75 72/40/72 74/39/74
f 69/42/69 75/41/75 71/43/71
f 69/42/69 73/44/73 75/41/75
f 75/41/75 74/39/74 71/43/71
f 70/38/70 72/40/72 75/41/75
f 73/44/73 70/38/70 75/41/75
g fff0f8fb_00018_00056516_e10
f 7/49/7 39/50/39 43/51/43
f 39/50/39 7/49/7 5/52/5
f 49/53/49 43/51/43 45/54/45
f 5/52/5 9/55/9 39/50/39
f 36/56/36 39/50/39 9/55/9
f 39/50/39 10/57/10 6/58/6
f 39/50/39 6/58/6 8/59/8
f 39/50/39 36/56/36 10/57/10
f 43/51/43 39/50/39 8/59/8
f 43/51/43 46/60/46 48/61/48
f 43/51/43 8/59/8 45/54/45
f 43/51/43 47/62/47 7/49/7
f 43/51/43 48/61/48 47/62/47
f 46/60/46 43/51/43 49/53/49
g fff0f8fb_00018_00056516_e12
f 12/63/12 11/64/11 14/65/14
f 13/66/13 14/65/14 11/64/11
f 11/64/11 12/63/12 38/67/38
f 17/17/17 24/12/24 18/11/18
f 17/17/17 23/15/23 24/12/24
f 28/3/28 30/10/30 34/21/34
f 34/21/34 32/18/32 28/3/28
f 54/45/54 55/47/55 61/46/61
f 54/45/54 61/46/61 60/48/60
f 65/34/65 71/43/71 67/36/67
f 71/43/71 65/34/65 69/42/69
g fff0f8fb_00018_00056516_e13
f 51/68/51 3/69/3 13/66/13
f 50/70/50 14/65/14 4/71/4
f 11/64/11 51/68/51 13/66/13
f 51/68/51 11/64/11 1/72/1
f 2/73/2 12/63/12 50/70/50
f 14/65/14 50/70/50 12/63/12
f 12/63/12 2/73/2 38/67/38
f 37/74/37 38/67/38 2/73/2
f 1/72/1 38/67/38 37/74/37
f 38/67/38 1/72/1 11/64/11
f 44/75/44 14/65/14 13/66/13
f 44/75/44 13/66/13 3/69/3
f 44/75/44 4/71/4 14/65/14
f 18/11/18 24/12/24 25/9/25
f 18/11/18 25/9/25 19/2/19
f 16/16/16 23/15/23 17/17/17
f 16/16/16 22/14/22 23/15/23
f 55/47/55 62/37/62 61/46/61
f 55/47/55 56/35/56 62/37/62
f 53/32/53 54/45/54 60/48/60
f 53/32/53 60/48/60 59/31/59
g fff0f8fb_00018_00056516_e11
f 51/68/51 47/62/47 3/69/3
f 51/68/51 1/72/1 5/52/5
f 6/58/6 50/70/50 8/59/8
f 44/75/44 49/53/49 45/54/45
f 36/56/36 37/74/37 2/73/2
f 36/56/36 9/55/9 1/72/1
f 8/59/8 50/70/50 45/54/45
f 50/70/50 6/58/6 2/73/2
f 44/75/44 3/69/3 47/62/47
f 7/49/7 51/68/51 5/52/5
f 1/72/1 9/55/9 5/52/5
f 44/75/44 45/54/45 4/71/4
f 4/71/4 45/54/45 50/70/50
f 2/73/2 6/58/6 10/57/10
f 46/60/46 44/75/44 48/61/48
f 51/68/51 7/49/7 47/62/47
f 48/61/48 44/75/44 47/62/47
f 36/56/36 2/73/2 10/57/10
f 44/75/44 46/60/46 49/53/49
f 37/74/37 36/56/36 1/72/1
f 27/13/27 25/9/25 24/12/24
f 27/13/27 24/12/24 23/15/23
f 27/13/27 23/15/23 22/14/22
f 27/13/27 26/6/26 25/9/25
f 26/6/26 30/10/30 25/9/25
f 30/10/30 26/6/26 31/5/31
f 31/5/31 41/23/41 30/10/30
f 41/23/41 34/21/34 30/10/30
f 29/4/29 19/2/19 28/3/28
f 19/2/19 29/4/29 20/1/20
f 28/3/28 40/22/40 29/4/29
f 40/22/40 33/20/33 29/4/29
f 40/22/40 28/3/28 32/18/32
f 64/33/64 61/46/61 62/37/62
f 64/33/64 60/48/60 61/46/61
f 64/33/64 59/31/59 60/48/60
f 64/33/64 62/37/62 63/27/63
f 63/27/63 62/37/62 67/36/67
f 67/36/67 68/26/68 63/27/63
f 68/26/68 67/36/67 74/39/74
f 74/39/74 67/36/67 71/43/71
f 66/28/66 65/34/65 56/35/56
f 56/35/56 57/25/57 66/28/66
f 65/34/65 66/28/66 73/44/73
f 73/44/73 66/28/66 70/38/70
f 73/44/73 69/42/69 65/34/65
