# fff0ef38_00021_0005fc7b
o fff0ef38_00021_0005fc7b
v -0.075725 -0.137730 0.031192
v 0.079538 -0.137730 0.031192
v -0.075725 0.136667 0.031192
v 0.079538 0.136667 0.031192
v -0.075725 -0.137730 0.418638
v 0.079538 -0.137730 0.418638
v -0.075725 0.136667 0.418638
v 0.079538 0.136667 0.418638
v -0.047152 -0.130386 0.462541
v 0.050965 -0.130386 0.462541
v -0.064077 -0.119100 0.000023
v 0.067891 -0.119100 0.000023
v -0.064077 0.124718 0.000023
v 0.067891 0.124718 0.000023
v 0.001907 -0.156158 0.462541
v -0.051634 -0.164872 0.418638
v -0.051634 -0.164872 0.031192
v 0.001626 -0.046761 0.462541
v -0.047152 -0.076680 0.462541
v 0.050965 -0.076680 0.462541
v -0.047152 -0.130384 0.503212
v 0.050965 -0.130384 0.503212
v 0.001907 -0.156157 0.503212
v 0.001626 -0.046759 0.503212
v -0.047152 -0.076679 0.503212
v 0.050965 -0.076679 0.503212
v -0.030136 -0.119080 0.503212
v 0.033885 -0.119080 0.503212
v 0.001875 -0.135896 0.503212
v 0.001691 -0.064515 0.503212
v -0.030136 -0.084038 0.503212
v 0.033885 -0.084038 0.503212
v -0.031340 -0.119062 0.536755
v 0.035091 -0.119062 0.536755
v 0.001876 -0.135860 0.541304
v 0.001685 -0.064553 0.521995
v -0.031340 -0.084055 0.527276
v 0.035091 -0.084055 0.527276
v 0.001499 0.116827 0.462541
v -0.034667 0.134034 0.500111
v 0.038480 0.134034 0.500111
v 0.001906 0.164883 0.500112
v 0.001499 0.116827 0.485791
v 0.001906 0.134034 0.532267
v 0.001499 -0.003471 0.485791
v -0.032904 -0.021087 0.500111
v 0.036718 -0.021087 0.500111
v 0.001906 -0.021087 0.532267
v 0.001906 -0.046761 0.500112
v 0.036718 -0.021087 0.462541
v -0.032904 -0.021087 0.462541
v 0.001328 -0.003471 0.462541
v 0.079538 -0.021087 0.418638
v -0.075725 -0.021087 0.418638
v -0.075009 0.135404 0.372261
v -0.075009 -0.136464 0.372261
v -0.051634 -0.164872 0.372261
v 0.078823 -0.136464 0.372261
v 0.078823 0.135404 0.372261
v -0.075542 0.136345 0.074862
v -0.075530 -0.137387 0.074862
v -0.051634 -0.164872 0.074862
v 0.079357 -0.137409 0.074862
v 0.079363 0.136358 0.074862
v -0.047152 -0.076679 0.473802
v -0.047152 -0.130385 0.473802
v 0.001907 -0.156158 0.473802
v 0.050965 -0.130385 0.473802
v 0.050965 -0.076679 0.473802
v 0.001626 -0.046760 0.473802
v -0.060464 0.166151 0.418638
v 0.065661 0.166151 0.418638
v 0.066893 0.166151 0.372261
v -0.061272 0.166151 0.372261
v 0.067353 0.166151 0.074862
v -0.062694 0.166151 0.074862
v 0.066216 0.166151 0.031192
v -0.060786 0.166151 0.031192
v 0.055916 -0.164872 0.418638
v 0.055558 -0.164872 0.372261
v 0.055825 -0.164872 0.074862
v 0.055916 -0.164872 0.031192
v -0.075725 -0.137730 0.418638
v 0.079538 -0.137730 0.418638
v -0.075725 0.136667 0.418638
v 0.079538 0.136667 0.418638
v -0.064077 -0.119100 0.000023
v 0.067891 -0.119100 0.000023
v -0.064077 0.124718 0.000023
v 0.067891 0.124718 0.000023
v -0.051634 -0.164872 0.418638
v 0.079538 -0.021087 0.418638
v -0.075725 -0.021087 0.418638
v -0.075009 0.135404 0.372261
v -0.075009 -0.136464 0.372261
v -0.051634 -0.164872 0.372261
v 0.078823 -0.136464 0.372261
v 0.078823 0.135404 0.372261
v -0.075542 0.136345 0.074862
v -0.075530 -0.137387 0.074862
v -0.051634 -0.164872 0.074862
v 0.079357 -0.137409 0.074862
v 0.079363 0.136358 0.074862
v -0.060464 0.166151 0.418638
v 0.065661 0.166151 0.418638
v 0.066893 0.166151 0.372261
v -0.061272 0.166151 0.372261
v 0.067353 0.166151 0.074862
v -0.062694 0.166151 0.074862
v 0.055916 -0.164872 0.418638
v 0.055558 -0.164872 0.372261
v 0.055825 -0.164872 0.074862
vt 0.743666 0.067478
vt 0.481574 0.067478
vt 0.727323 0.234484
vt -0.091984 0.085458
vt 0.291409 0.012063
vt 0.427011 0.012063
vt 0.291409 0.315215
vt 0.427011 0.315215
vt 0.582093 0.500833
vt 0.707981 0.498482
vt 0.567643 0.739506
vt 0.721412 0.735575
vt 0.613630 0.513901
vt 0.690589 0.465843
vt 0.598007 0.739138
vt 0.692147 0.738770
vt 0.706774 0.490059
vt 0.706995 0.732942
vt 0.574967 0.490204
vt 0.574806 0.733878
vt 0.632860 0.474365
vt 0.344495 0.344161
vt 0.627780 0.500989
vt 0.631784 0.505033
vt 0.370121 0.016091
vt 0.639234 0.561959
vt 0.612083 0.542375
vt 0.678944 0.512389
vt 0.608747 0.509522
vt 0.608747 0.544565
vt 0.640758 0.492706
vt 0.672768 0.505446
vt 0.672768 0.540489
vt 0.640574 0.564087
vt 0.608747 0.494644
vt 0.608747 0.529686
vt 0.640758 0.477827
vt 0.672768 0.494644
vt 0.672768 0.529686
vt 0.640574 0.549209
vt 0.361515 0.343576
vt 0.642149 0.745949
vt 0.361515 0.013804
vt 0.639569 0.761073
vt 0.624563 0.704596
vt 0.663482 0.704993
vt 0.610915 0.744471
vt 0.642841 0.745487
vt 0.624730 0.704293
vt 0.686751 0.745094
vt 0.663276 0.704702
vt 0.639495 0.745256
vt 0.576456 0.756622
vt 0.624723 0.743124
vt 0.601448 0.720805
vt 0.680161 0.731265
vt 0.672328 0.708634
vt 0.679410 0.750558
vt 0.627767 0.702542
vt 0.613248 0.722952
vt 0.661770 0.704428
vt 0.667780 0.717483
vt 0.588706 0.758893
vt 0.679113 0.741208
vt 0.632977 0.745005
vt 0.671469 0.755232
vt 0.652930 0.675378
vt 0.638611 0.690444
vt 0.657189 0.696451
vt 0.622223 0.710392
vt 0.664966 0.710218
vt 0.598157 0.745862
vt 0.675708 0.733311
vt 0.642134 0.686623
vt 0.655582 0.694000
vt 0.656806 0.695774
vt 0.650106 0.678344
vt 0.614214 0.719398
vt 0.666587 0.713086
vt 0.675740 0.598253
vt 0.611947 0.587994
vt 0.659683 0.620617
vt 0.623047 0.620592
vt 0.732713 0.235754
vt 0.699062 0.561817
vt 0.654757 0.241535
vt 0.581813 0.584238
vt 0.581569 0.163189
vt 0.426771 0.142237
vt 0.324200 0.204563
vt 0.291692 0.180428
vt 0.356519 0.198900
vt 0.637122 0.171876
vt 0.423733 0.184025
vt 0.268007 0.187539
vt 0.291749 0.142633
vt 0.360782 0.155999
vt 0.661929 0.523958
vt 0.662503 0.503172
vt 0.640513 0.491322
vt 0.702243 0.091937
vt 0.438879 0.104669
vt 0.291486 0.057740
vt 0.366756 0.061309
vt 0.716627 0.093973
vt 0.426179 0.055704
vt 0.429209 0.096916
vt 0.291492 0.044077
vt 0.361329 0.049820
vt -0.016391 -0.029182
vt 0.513975 -0.029182
vt -0.016391 1.032168
vt 0.513975 1.032168
vt 0.513975 -0.029182
vt -0.016391 1.032168
vt 0.513975 1.032168
vt -0.016391 -0.029182
vt 0.610415 0.543470
vt 0.611189 0.511712
vt 0.636809 0.483535
vt 0.681679 0.485645
vt 0.675856 0.526439
vt 0.639904 0.563023
vt 0.416376 0.041581
vt 0.607366 0.739731
vt 0.414136 0.320791
vt 0.683209 0.740053
vt 0.303941 0.320285
vt 0.302456 0.144706
vt 0.414985 0.144695
vt 0.302321 0.044968
vt 0.407244 0.042947
vt 0.303440 0.012361
vt 0.579986 0.743207
vt 0.414408 0.012398
vt 0.705664 0.740481
vt 0.667880 0.499736
vt 0.385753 0.329688
vt 0.390126 0.191462
vt 0.396468 0.058506
vt 0.606939 0.502933
vt 0.398566 0.014077
vt 0.673327 -0.026556
vt 0.673327 -0.026556
vt 0.673327 1.031386
vt 0.673327 1.031386
vt 0.970840 1.031386
vt 0.970840 1.031386
vt 0.970840 -0.026556
vt 0.970840 -0.026556
vt 0.668683 -0.026556
vt 0.668683 1.031386
vt 0.525107 1.031386
vt 0.525107 -0.026556
vt 0.525107 -0.026556
vt 0.525107 1.031386
vt 0.668683 -0.026556
vt 0.668683 1.031386
vt 0.668683 -0.026556
vt 0.668683 1.031386
vt 0.525107 1.031386
vt 0.525107 -0.026556
vt 0.525107 1.031386
vt 0.525107 -0.026556
vt 0.525107 1.031386
vt 0.668683 -0.026556
vt 0.668683 -0.026556
vt 0.668683 1.031386
vn -0.894993 -0.372011 -0.246162
vn 0.897049 -0.366588 -0.246812
vn -0.948204 0.236158 -0.212460
vn 0.953771 0.216611 -0.208329
vn -0.780571 -0.285911 0.555845
vn 0.719185 -0.320290 0.616593
vn -0.755072 0.045081 0.654091
vn 0.756414 0.029824 0.653413
vn -0.805150 -0.471650 0.359555
vn 0.796560 -0.522037 0.304908
vn 0.000000 0.000000 -1.000000
vn 0.000000 0.000000 -1.000000
vn 0.000000 0.000000 -1.000000
vn 0.000000 0.000000 -1.000000
vn 0.015348 -0.972516 0.232330
vn -0.416590 -0.766597 0.488654
vn -0.344800 -0.850142 -0.397959
vn -0.007765 0.064891 0.997862
vn -0.852390 0.254587 0.456745
vn 0.851584 0.255396 0.457796
vn -0.680080 -0.410934 0.607145
vn 0.680081 -0.410931 0.607146
vn 0.000003 -0.787830 0.615893
vn -0.002023 0.795041 0.606552
vn -0.690149 0.386315 0.611928
vn 0.689414 0.388211 0.611555
vn -0.850004 -0.526177 -0.025111
vn 0.850516 -0.524886 -0.033432
vn -0.004102 -0.999985 -0.003544
vn 0.003022 0.999989 -0.003626
vn -0.869751 0.491925 -0.039267
vn 0.864299 0.501510 -0.038404
vn -0.694283 -0.322312 0.643495
vn 0.693758 -0.319478 0.645471
vn -0.003141 -0.693505 0.720445
vn 0.002448 0.869977 0.493086
vn -0.702931 0.472890 0.531284
vn 0.698901 0.479814 0.530393
vn -0.003281 -0.745966 0.665977
vn -0.901061 0.066621 0.428544
vn 0.900626 0.061409 0.430235
vn -0.001465 0.873412 0.486981
vn -0.005646 -0.734489 -0.678597
vn -0.000005 0.342726 0.939435
vn -0.005349 0.678458 -0.734620
vn -0.958231 -0.229303 0.170920
vn 0.959122 -0.228755 0.166603
vn -0.000008 -0.377242 0.926115
vn 0.001635 -0.954884 0.296976
vn 0.649525 0.079690 0.756153
vn -0.654217 0.078986 0.752171
vn -0.004068 0.566354 0.824152
vn 0.747005 0.047896 0.663091
vn -0.746999 0.047898 0.663097
vn -0.978087 0.208182 0.002400
vn -0.941493 -0.337021 0.002697
vn -0.426021 -0.904712 0.001695
vn 0.941888 -0.335917 0.002759
vn 0.982984 0.183676 0.002369
vn -0.979201 0.202871 0.003106
vn -0.936847 -0.349737 0.001084
vn -0.414657 -0.909978 0.000000
vn 0.938033 -0.346542 0.001439
vn 0.981726 0.190293 0.001706
vn -0.872597 0.488440 -0.000018
vn -0.855886 -0.517165 0.000019
vn 0.000004 -1.000000 0.000037
vn 0.855888 -0.517162 0.000019
vn 0.871351 0.490659 -0.000018
vn -0.002545 0.999997 -0.000037
vn -0.572586 0.748681 0.334098
vn 0.585202 0.735225 0.342029
vn 0.564171 0.825656 0.001668
vn -0.543311 0.839530 0.001801
vn 0.559898 0.828561 0.000866
vn -0.550787 0.834642 0.002634
vn 0.465429 0.799811 -0.379048
vn -0.443856 0.810106 -0.383041
vn 0.419494 -0.640569 0.643192
vn 0.427048 -0.904227 0.001765
vn 0.418132 -0.908386 0.000375
vn 0.347906 -0.848678 -0.398380
vn -0.932973 -0.359132 -0.024205
vn 0.934722 -0.354560 -0.024104
vn -0.970581 0.239814 -0.021510
vn 0.974985 0.221268 -0.021070
vn -0.688474 -0.329399 -0.646142
vn 0.688355 -0.328558 -0.646697
vn -0.685401 0.346395 -0.640496
vn 0.684341 0.342668 -0.643627
vn -0.417225 -0.908755 -0.009357
vn 0.999881 0.000000 -0.015428
vn -0.999881 0.000000 -0.015430
vn -0.976250 0.216485 -0.008416
vn -0.940056 -0.340693 -0.014923
vn -0.426975 -0.904263 -0.000002
vn 0.940964 -0.338097 -0.016660
vn 0.980895 0.194461 -0.005415
vn -0.979519 0.201272 0.005603
vn -0.936305 -0.351161 0.004393
vn -0.414656 -0.909978 0.000001
vn 0.938314 -0.345726 0.006439
vn 0.981834 0.189670 0.005290
vn -0.525296 0.850902 -0.005482
vn 0.540813 0.841136 -0.003393
vn 0.571288 0.820610 0.015173
vn -0.548291 0.836233 0.009552
vn 0.558896 0.829230 -0.003536
vn -0.549437 0.835503 -0.007299
vn 0.421886 -0.906585 -0.010794
vn 0.426303 -0.904575 -0.003289
vn 0.415936 -0.909390 0.002828
g fff0ef38_00021_0005fc7b_e0
f 46/60/46 49/72/49 48/63/48
f 47/62/47 48/64/48 49/73/49
f 18/78/18 46/68/46 51/74/51
f 46/68/46 18/78/18 49/70/49
f 47/69/47 49/71/49 18/79/18
f 18/79/18 50/76/50 47/69/47
f 41/56/41 44/58/44 48/64/48
f 48/63/48 40/53/40 46/60/46
f 48/64/48 47/62/47 41/56/41
f 16/23/16 15/21/15 9/13/9
f 40/53/40 48/63/48 44/54/44
f 15/21/15 6/10/6 10/14/10
f 15/21/15 79/137/79 6/10/6
f 16/23/16 9/13/9 5/9/5
f 15/21/15 16/23/16 79/137/79
g fff0ef38_00021_0005fc7b_e1
f 7/15/7 39/45/39 43/49/43
f 43/49/43 40/47/40 7/15/7
f 8/16/8 43/51/43 39/46/39
f 43/51/43 8/16/8 41/50/41
f 1/2/1 99/101/99 3/1/3
f 2/1/2 4/2/4 102/105/102
f 43/55/43 46/60/46 40/53/40
f 46/60/46 43/55/43 45/59/45
f 43/57/43 41/56/41 47/62/47
f 47/62/47 45/61/45 43/57/43
f 40/47/40 71/125/71 7/15/7
f 72/127/72 42/52/42 41/50/41
f 47/69/47 52/75/52 45/61/45
f 52/75/52 47/69/47 50/76/50
f 45/67/45 52/77/52 46/68/46
f 51/74/51 46/68/46 52/77/52
f 92/84/92 97/93/97 98/95/98
f 4/2/4 103/107/103 102/105/102
f 93/86/93 94/88/94 95/90/95
f 1/2/1 100/102/100 99/101/99
f 93/86/93 85/3/85 94/88/94
f 93/86/93 95/90/95 83/4/83
f 71/125/71 40/47/40 42/48/42
f 41/50/41 8/16/8 72/127/72
f 98/95/98 86/4/86 92/84/92
f 92/84/92 84/3/84 97/93/97
f 71/42/71 42/52/42 72/127/72
g fff0ef38_00021_0005fc7b_e2
f 3/6/3 99/124/99 109/132/109
f 104/126/104 94/89/94 85/8/85
f 105/128/105 86/7/86 98/96/98
f 77/133/77 108/131/108 4/5/4
f 3/6/3 109/132/109 78/135/78
f 77/133/77 109/109/109 108/131/108
f 1/10/1 3/12/3 89/18/89
f 89/18/89 87/17/87 1/10/1
f 4/11/4 2/9/2 88/19/88
f 88/19/88 90/20/90 4/11/4
f 106/129/106 104/41/104 105/128/105
f 17/24/17 1/10/1 87/17/87
f 82/141/82 88/19/88 2/9/2
f 108/131/108 103/108/103 4/5/4
f 78/43/78 109/109/109 77/133/77
f 88/19/88 17/24/17 87/17/87
f 104/126/104 107/130/107 94/89/94
f 17/24/17 88/19/88 82/141/82
f 106/129/106 105/128/105 98/96/98
f 107/97/107 104/41/104 106/129/106
g fff0ef38_00021_0005fc7b_e3
f 91/22/91 96/92/96 111/139/111
f 17/25/17 100/103/100 1/5/1
f 96/92/96 91/22/91 95/91/95
f 82/142/82 112/140/112 101/104/101
f 19/27/19 5/9/5 9/13/9
f 54/87/54 19/27/19 51/81/51
f 110/138/110 97/94/97 84/8/84
f 20/28/20 10/14/10 6/10/6
f 7/15/7 51/81/51 39/45/39
f 5/9/5 19/27/19 54/87/54
f 2/6/2 112/140/112 82/142/82
f 53/85/53 50/80/50 20/28/20
f 50/80/50 39/46/39 52/82/52
f 20/28/20 6/10/6 53/85/53
f 91/22/91 83/7/83 95/91/95
f 17/25/17 101/104/101 100/103/100
f 39/46/39 50/80/50 8/16/8
f 52/83/52 39/45/39 51/81/51
f 50/80/50 18/26/18 20/28/20
f 41/56/41 42/66/42 44/58/44
f 44/54/44 42/65/42 40/53/40
f 51/81/51 19/27/19 18/26/18
f 54/87/54 51/81/51 7/11/7
f 8/12/8 50/80/50 53/85/53
f 91/22/91 111/139/111 110/138/110
f 110/138/110 111/139/111 97/94/97
f 2/6/2 102/106/102 112/140/112
f 82/142/82 101/104/101 17/25/17
g fff0ef38_00021_0005fc7b_e4
f 77/134/77 4/11/4 90/20/90
f 89/18/89 78/44/78 90/20/90
f 78/136/78 89/18/89 3/12/3
f 11/17/11 13/18/13 14/20/14
f 14/20/14 12/19/12 11/17/11
f 78/44/78 77/134/77 90/20/90
g fff0ef38_00021_0005fc7b_e10
f 76/143/76 60/144/60 74/145/74
f 60/144/60 55/146/55 74/145/74
f 73/147/73 59/148/59 64/149/64
f 75/150/75 74/145/74 73/147/73
f 75/150/75 73/147/73 64/149/64
f 76/143/76 74/145/74 75/150/75
g fff0ef38_00021_0005fc7b_e6
f 25/30/25 21/29/21 24/34/24
f 23/31/23 24/26/24 21/29/21
f 36/40/36 37/98/37 38/39/38
f 24/34/24 22/32/22 26/33/26
f 37/99/37 33/37/33 34/38/34
f 35/37/35 34/100/34 33/35/33
f 24/26/24 23/31/23 22/32/22
f 37/98/37 34/38/34 38/39/38
g fff0ef38_00021_0005fc7b_e7
f 66/119/66 67/120/67 23/31/23
f 22/32/22 23/31/23 67/120/67
f 27/29/27 29/31/29 35/37/35
f 35/37/35 33/35/33 27/29/27
f 34/38/34 35/37/35 29/31/29
f 29/31/29 28/32/28 34/38/34
f 23/31/23 21/29/21 66/119/66
f 67/120/67 68/121/68 22/32/22
g fff0ef38_00021_0005fc7b_e5
f 81/159/81 80/160/80 57/161/57
f 62/162/62 57/163/57 61/164/61
f 57/165/57 56/156/56 61/155/61
f 62/154/62 81/166/81 57/153/57
f 63/167/63 58/158/58 80/168/80
f 81/151/81 63/157/63 80/152/80
g fff0ef38_00021_0005fc7b_e9
f 60/110/60 61/111/61 55/112/55
f 61/111/61 56/113/56 55/112/55
f 63/114/63 59/115/59 58/116/58
f 64/117/64 59/115/59 63/114/63
g fff0ef38_00021_0005fc7b_e8
f 66/119/66 65/118/65 19/27/19
f 19/27/19 9/13/9 66/119/66
f 15/21/15 10/14/10 68/121/68
f 70/123/70 69/122/69 20/28/20
f 20/28/20 18/26/18 70/123/70
f 66/119/66 15/21/15 67/120/67
f 68/121/68 67/120/67 15/21/15
f 20/28/20 68/121/68 10/14/10
f 18/26/18 19/27/19 65/118/65
f 68/121/68 20/28/20 69/122/69
f 65/118/65 70/123/70 18/26/18
f 15/21/15 66/119/66 9/13/9
g fff0ef38_00021_0005fc7b_e11
f 68/121/68 69/122/69 26/33/26
f 26/33/26 22/32/22 68/121/68
f 65/118/65 66/119/66 21/29/21
f 21/29/21 25/30/25 65/118/65
f 38/39/38 34/38/34 28/32/28
f 28/32/28 32/33/32 38/39/38
f 33/35/33 37/36/37 31/30/31
f 31/30/31 27/29/27 33/35/33
g fff0ef38_00021_0005fc7b_e12
f 25/30/25 24/34/24 70/123/70
f 69/122/69 70/123/70 24/34/24
f 70/123/70 65/118/65 25/30/25
f 24/34/24 26/33/26 69/122/69
f 36/40/36 38/39/38 32/33/32
f 32/33/32 30/34/30 36/40/36
f 37/36/37 36/40/36 30/34/30
f 30/34/30 31/30/31 37/36/37
