# Blender v2.93.8 OBJ File: ''
# www.blender.org
mtllib ShoppingTrolley.mtl
o STrolleyCol
v 0.295004 0.069054 -0.084706
v 0.264201 0.047524 -0.082926
v 0.257820 0.088688 -0.086329
v -0.212512 0.162721 0.101492
v -0.212512 0.162721 0.101492
v 0.225758 0.162029 0.101500
v -0.204787 0.205099 0.094588
v 0.217782 0.205099 0.094374
v 0.159011 -0.015339 0.564461
v 0.157995 0.005545 0.569966
v 0.155218 0.020828 0.585008
v 0.151424 0.026424 0.605559
v 0.147629 0.020828 0.626109
v 0.144854 0.005544 0.641151
v 0.151812 -0.015339 0.605640
v 0.143837 -0.015339 0.646658
v 0.144854 -0.036221 0.641151
v 0.147629 -0.051509 0.626109
v 0.151423 -0.057102 0.605559
v 0.155218 -0.051509 0.585008
v 0.157995 -0.036221 0.569966
v -0.251356 0.687337 -0.179270
v -0.252418 0.601777 -0.199596
v -0.305165 0.687336 -0.176462
v -0.306226 0.601777 -0.196785
v -0.311367 0.669159 -0.295288
v -0.311013 0.697738 -0.288501
v -0.310614 0.637505 -0.280846
v -0.309659 0.714460 -0.262567
v -0.306226 0.601777 -0.196785
v -0.305165 0.687336 -0.176462
v -0.257205 0.697738 -0.291310
v -0.257559 0.669160 -0.298097
v -0.256805 0.637505 -0.283656
v -0.255852 0.714461 -0.265376
v -0.252418 0.601777 -0.199596
v -0.251356 0.687337 -0.179270
v -0.245002 0.088362 -0.086303
v -0.267624 0.049959 -0.083128
v -0.288274 0.086519 -0.086152
v 0.325181 0.687337 -0.176462
v 0.271371 0.687338 -0.179270
v 0.275868 0.714461 -0.265376
v 0.329675 0.714460 -0.262567
v 0.331029 0.697738 -0.288501
v 0.277221 0.697739 -0.291310
v 0.331383 0.669159 -0.295288
v 0.277575 0.669160 -0.298097
v 0.330630 0.637505 -0.280846
v 0.276821 0.637505 -0.283656
v 0.326242 0.601777 -0.196785
v 0.272434 0.601777 -0.199596
v 0.326242 0.601777 -0.196785
v 0.272434 0.601777 -0.199596
v 0.325181 0.687337 -0.176462
v 0.271371 0.687338 -0.179270
v 0.271371 0.687338 -0.179270
v 0.272434 0.601777 -0.199596
v 0.275868 0.714461 -0.265376
v 0.276821 0.637505 -0.283656
v 0.277575 0.669160 -0.298097
v 0.277221 0.697739 -0.291310
v -0.139389 0.005544 0.566067
v -0.140406 -0.015339 0.560566
v -0.269334 -0.011434 -0.032605
v -0.269334 -0.011434 -0.032605
v -0.249706 -0.011434 -0.034841
v -0.272420 -0.013225 -0.048201
v -0.252792 -0.013225 -0.050436
v -0.118299 -0.011434 0.597697
v -0.118299 -0.011434 0.597697
v -0.110834 0.057156 0.630177
v -0.120557 -0.013225 0.584472
v -0.119203 0.057156 0.581154
v -0.110834 0.057156 0.630177
v -0.110834 0.057156 0.630177
v -0.118299 -0.011434 0.597697
v -0.128022 0.057156 0.637525
v -0.131644 -0.011434 0.603864
v -0.133901 -0.013225 0.590638
v -0.133901 -0.013225 0.590638
v -0.135887 0.057156 0.588348
v -0.131644 -0.011434 0.603864
v -0.128022 0.057156 0.637525
v -0.135887 0.057156 0.588348
v -0.135887 0.057156 0.588348
v -0.133901 -0.013225 0.590638
v -0.119203 0.057156 0.581154
v -0.120557 -0.013225 0.584472
v -0.135887 0.057156 0.588348
v -0.135887 0.057156 0.588348
v -0.119203 0.057156 0.581154
v -0.128022 0.057156 0.637525
v -0.110834 0.057156 0.630177
v -0.120557 -0.013225 0.584472
v -0.120557 -0.013225 0.584472
v -0.133901 -0.013225 0.590638
v -0.118299 -0.011434 0.597697
v -0.131644 -0.011434 0.603864
v -0.263297 0.064309 0.007347
v -0.263297 0.064309 0.007347
v -0.269334 -0.011434 -0.032605
v -0.274321 0.064309 -0.050707
v -0.272420 -0.013225 -0.048201
v -0.252792 -0.013225 -0.050436
v -0.252792 -0.013225 -0.050436
v -0.251921 0.073666 -0.054582
v -0.272420 -0.013225 -0.048201
v -0.274321 0.064309 -0.050707
v -0.251921 0.073666 -0.054582
v -0.251921 0.073666 -0.054582
v -0.252792 -0.013225 -0.050436
v -0.240480 0.073666 0.003225
v -0.249706 -0.011434 -0.034841
v -0.269334 -0.011434 -0.032605
v -0.269334 -0.011434 -0.032605
v -0.263297 0.064309 0.007347
v -0.249706 -0.011434 -0.034841
v -0.240480 0.073666 0.003225
v -0.284690 0.041125 -0.028566
v -0.284690 0.041125 -0.028566
v 0.300276 0.041125 -0.028566
v -0.284690 0.019081 -0.021307
v 0.300276 0.019081 -0.021306
v -0.284690 0.041125 -0.028566
v -0.284690 0.041125 -0.028566
v -0.284690 0.015910 -0.041997
v 0.300276 0.041125 -0.028566
v 0.300276 0.015910 -0.041997
v 0.300276 0.019081 -0.021306
v 0.300276 0.019081 -0.021306
v 0.300276 0.015910 -0.041997
v -0.284690 0.019081 -0.021307
v -0.284690 0.015910 -0.041997
v 0.261019 -0.013225 -0.050436
v 0.261019 -0.013225 -0.050436
v 0.257932 -0.011434 -0.034841
v 0.280647 -0.013225 -0.048201
v 0.277560 -0.011434 -0.032606
v -0.111382 0.073737 0.639491
v -0.111382 0.073737 0.639491
v -0.111382 0.041163 0.642043
v 0.104391 0.072897 0.639557
v 0.104391 0.039546 0.642170
v -0.286268 0.617436 -0.172643
v -0.286268 0.617436 -0.172643
v -0.259135 0.607158 -0.184447
v -0.290248 0.637475 -0.216408
v -0.257835 0.623319 -0.221039
v 0.112320 0.057156 0.581154
v 0.112320 0.057156 0.581154
v 0.103951 0.057156 0.630177
v 0.113674 -0.013225 0.584472
v 0.111416 -0.011434 0.597697
v 0.131477 -0.011434 0.603864
v 0.131477 -0.011434 0.603864
v 0.111416 -0.011434 0.597697
v 0.127855 0.057156 0.637525
v 0.103951 0.057156 0.630177
v 0.127855 0.057156 0.637525
v 0.127855 0.057156 0.637525
v 0.135720 0.057156 0.588348
v 0.131477 -0.011434 0.603864
v 0.133734 -0.013225 0.590638
v 0.113674 -0.013225 0.584472
v 0.113674 -0.013225 0.584472
v 0.133734 -0.013225 0.590638
v 0.112320 0.057156 0.581154
v 0.135720 0.057156 0.588348
v 0.103951 0.057156 0.630177
v 0.103951 0.057156 0.630177
v 0.112320 0.057156 0.581154
v 0.127855 0.057156 0.637525
v 0.135720 0.057156 0.588348
v 0.132020 0.048442 0.487272
v 0.132020 0.048442 0.487272
v -0.136157 0.048665 0.490195
v 0.158919 0.052938 0.437783
v -0.162869 0.052939 0.437783
v 0.316872 0.611145 -0.165469
v 0.316872 0.611145 -0.165469
v 0.316305 0.634761 -0.223577
v 0.283749 0.599585 -0.179275
v 0.286004 0.616656 -0.228902
v 0.283749 0.599585 -0.179275
v 0.283749 0.599585 -0.179275
v 0.261392 0.189578 -0.113669
v 0.316872 0.611145 -0.165469
v 0.261392 0.189578 -0.113669
v 0.284505 0.182701 -0.086361
v 0.254363 0.156946 -0.065836
v 0.131477 -0.011434 0.603864
v 0.131477 -0.011434 0.603864
v 0.133734 -0.013225 0.590638
v 0.111416 -0.011434 0.597697
v 0.113674 -0.013225 0.584472
v 0.280647 -0.013225 -0.048201
v 0.280647 -0.013225 -0.048201
v 0.277560 -0.011434 -0.032606
v 0.282547 0.064309 -0.050707
v 0.271523 0.064309 0.007347
v 0.282547 0.064309 -0.050707
v 0.282547 0.064309 -0.050707
v 0.260148 0.055068 -0.054582
v 0.280647 -0.013225 -0.048201
v 0.261019 -0.013225 -0.050436
v -0.254528 0.066069 0.078285
v -0.254528 0.066069 0.078285
v -0.249559 0.056554 0.062671
v -0.297411 0.650022 -0.145272
v -0.266996 0.635829 -0.156588
v 0.257932 -0.011434 -0.034841
v 0.257932 -0.011434 -0.034841
v 0.261019 -0.013225 -0.050436
v 0.248706 0.055068 0.003225
v 0.260148 0.055068 -0.054582
v 0.248706 0.055068 0.003225
v 0.248706 0.055068 0.003225
v 0.271523 0.064309 0.007347
v 0.257932 -0.011434 -0.034841
v 0.277560 -0.011434 -0.032606
v -0.249559 0.056554 0.062671
v -0.249559 0.056554 0.062671
v -0.230916 0.056554 0.092555
v -0.266996 0.635829 -0.156588
v -0.267949 0.665066 -0.134205
v -0.259919 0.658323 -0.210128
v -0.261039 0.689514 -0.202375
v 0.315544 0.644652 -0.135074
v 0.315544 0.644652 -0.135074
v 0.317290 0.676016 -0.216537
v 0.281100 0.629379 -0.147166
v 0.284349 0.657290 -0.221166
v -0.212512 0.162721 0.101492
v -0.212512 0.162721 0.101492
v -0.204787 0.205099 0.094588
v -0.243158 0.160019 -0.065375
v -0.240952 0.206167 -0.061339
v -0.242924 0.194818 -0.095412
v -0.240952 0.206167 -0.061339
v -0.259135 0.607158 -0.184447
v -0.259736 0.630428 -0.160951
v -0.257835 0.623319 -0.221039
v -0.258618 0.653724 -0.211610
v 0.234026 0.056554 0.067448
v 0.234026 0.056554 0.067448
v 0.259743 0.056554 0.081904
v 0.281100 0.629379 -0.147166
v 0.315544 0.644652 -0.135074
v 0.259743 0.056554 0.081904
v 0.259743 0.056554 0.081904
v 0.234654 0.056554 0.096778
v 0.315544 0.644652 -0.135074
v 0.281395 0.661461 -0.123242
v 0.315544 0.644652 -0.135074
v 0.285269 0.688478 -0.211719
v 0.317290 0.676016 -0.216537
v 0.139222 0.005544 0.566066
v -0.259919 0.658323 -0.210128
v -0.259919 0.658323 -0.210128
v -0.292630 0.673608 -0.206329
v -0.266996 0.635829 -0.156588
v -0.297411 0.650022 -0.145272
v -0.105333 0.665582 -0.216799
v -0.105333 0.665582 -0.216799
v -0.290823 0.665582 -0.215532
v -0.106408 0.688090 -0.237556
v -0.290823 0.690171 -0.236382
v -0.106408 0.688090 -0.237556
v -0.290823 0.664544 -0.277193
v -0.106408 0.664544 -0.277194
v 0.139222 -0.036221 0.566066
v 0.140239 -0.015339 0.560566
v 0.132268 -0.015339 0.601580
v 0.139222 0.005544 0.566066
v 0.136447 0.020828 0.581111
v 0.132652 0.026424 0.601662
v 0.128857 0.020828 0.622213
v 0.126082 0.005544 0.637254
v 0.125067 -0.015339 0.642758
v 0.126082 -0.036221 0.637254
v 0.128857 -0.051509 0.622213
v 0.132653 -0.057102 0.601662
v 0.136447 -0.051509 0.581111
v -0.290823 0.640432 -0.251232
v -0.105333 0.665582 -0.216799
v -0.290823 0.665582 -0.215532
v 0.257820 0.088688 -0.086329
v 0.257820 0.088688 -0.086329
v 0.227626 0.075077 0.104131
v 0.264201 0.047524 -0.082926
v 0.227626 0.075077 0.104131
v 0.224798 0.031715 0.106409
v 0.104391 0.072897 0.639557
v 0.104391 0.039546 0.642170
v 0.316689 0.664545 -0.277194
v 0.316718 0.640433 -0.251233
v 0.135964 0.664545 -0.277194
v -0.111382 0.041163 0.642043
v -0.111382 0.041163 0.642043
v -0.111382 0.073737 0.639491
v -0.239305 0.037700 0.092428
v -0.224009 0.078735 0.089791
v -0.267624 0.049959 -0.083128
v -0.245002 0.088362 -0.086303
v -0.292630 0.673608 -0.206329
v -0.292630 0.673608 -0.206329
v -0.261039 0.689514 -0.202375
v -0.297411 0.650022 -0.145272
v -0.267949 0.665066 -0.134205
v -0.254528 0.066069 0.078285
v -0.230916 0.056554 0.092555
v 0.295004 0.069054 -0.084706
v 0.295004 0.069054 -0.084706
v 0.265697 0.055408 0.103916
v 0.257820 0.088688 -0.086329
v 0.265697 0.055408 0.103916
v 0.227626 0.075077 0.104131
v 0.123618 0.057498 0.657833
v 0.104391 0.072897 0.639557
v 0.123618 0.057498 0.657833
v -0.111382 0.073737 0.639491
v -0.130915 0.064151 0.657510
v -0.224009 0.078735 0.089791
v -0.258640 0.073409 0.092778
v -0.245002 0.088362 -0.086303
v -0.288274 0.086519 -0.086152
v -0.158162 0.005544 0.569967
v -0.159177 -0.015339 0.564461
v -0.158162 -0.036221 0.569966
v -0.155385 -0.051509 0.585008
v -0.151590 -0.057103 0.605560
v -0.147796 -0.051509 0.626109
v -0.145020 -0.036221 0.641151
v -0.144004 -0.015339 0.646658
v -0.145020 0.005544 0.641151
v -0.147796 0.020828 0.626109
v -0.151979 -0.015339 0.605640
v -0.151590 0.026423 0.605560
v -0.155385 0.020828 0.585008
v -0.305149 0.066640 -0.000438
v -0.310655 0.058310 -0.031128
v -0.305681 0.004466 -0.000336
v -0.314684 0.035553 -0.053589
v -0.316159 0.004466 -0.061811
v -0.314683 -0.026623 -0.053589
v -0.310655 -0.049382 -0.031128
v -0.305149 -0.057711 -0.000438
v -0.299644 -0.049382 0.030244
v -0.295615 -0.026623 0.052706
v -0.294142 0.004466 0.060928
v -0.295615 0.035553 0.052705
v -0.299644 0.058309 0.030244
v 0.303842 0.035553 0.052705
v 0.302368 0.004466 0.060928
v 0.303842 -0.026622 0.052706
v 0.307870 -0.049382 0.030244
v 0.313375 -0.057711 -0.000438
v 0.313908 0.004466 -0.000336
v 0.318882 -0.049382 -0.031128
v 0.322910 -0.026622 -0.053589
v 0.324385 0.004466 -0.061811
v 0.322910 0.035553 -0.053589
v 0.318882 0.058310 -0.031128
v 0.313375 0.066640 -0.000438
v 0.307870 0.058310 0.030244
v -0.290248 0.637475 -0.216408
v -0.290248 0.637475 -0.216408
v -0.258618 0.653724 -0.211610
v -0.286268 0.617436 -0.172643
v -0.259736 0.630428 -0.160951
v -0.286268 0.617436 -0.172643
v -0.240952 0.206167 -0.061339
v -0.272316 0.176250 -0.080644
v -0.240952 0.206167 -0.061339
v -0.232336 0.183955 0.137200
v -0.204787 0.205099 0.094588
v -0.232336 0.183955 0.137200
v 0.217782 0.205099 0.094374
v 0.246219 0.183945 0.137620
v 0.257846 0.209501 -0.075476
v 0.284505 0.182701 -0.086361
v 0.289998 0.625584 -0.151797
v 0.316872 0.611145 -0.165469
v 0.286754 0.653328 -0.218071
v 0.316305 0.634761 -0.223577
v 0.325181 0.687337 -0.176462
v 0.326242 0.601777 -0.196785
v 0.329675 0.714460 -0.262567
v 0.330630 0.637505 -0.280846
v 0.331029 0.697738 -0.288501
v 0.331383 0.669159 -0.295288
v -0.243158 0.160019 -0.065375
v -0.272316 0.176250 -0.080644
v -0.242924 0.194818 -0.095412
v -0.286268 0.617436 -0.172643
v -0.242924 0.194818 -0.095412
v -0.259135 0.607158 -0.184447
v 0.254363 0.156946 -0.065836
v 0.284505 0.182701 -0.086361
v 0.225758 0.162029 0.101500
v 0.246219 0.183945 0.137620
v -0.212512 0.162721 0.101492
v -0.232336 0.183955 0.137200
v -0.212512 0.162721 0.101492
v -0.272316 0.176250 -0.080644
v -0.212512 0.162721 0.101492
v -0.243158 0.160019 -0.065375
v 0.264201 0.047524 -0.082926
v 0.295004 0.069054 -0.084706
v 0.224798 0.031715 0.106409
v 0.265697 0.055408 0.103916
v 0.104391 0.039546 0.642170
v 0.123618 0.057498 0.657833
v 0.104391 0.039546 0.642170
v -0.130915 0.064151 0.657510
v -0.111382 0.041163 0.642043
v -0.258640 0.073409 0.092778
v -0.239305 0.037700 0.092428
v -0.288274 0.086519 -0.086152
v -0.267624 0.049959 -0.083128
v -0.159177 -0.015339 0.564461
v -0.158162 0.005544 0.569967
v -0.136614 0.020828 0.581111
v -0.155385 0.020828 0.585008
v -0.132819 0.026423 0.601662
v -0.151590 0.026423 0.605560
v -0.129024 0.020828 0.622214
v -0.147796 0.020828 0.626109
v -0.126249 0.005544 0.637254
v -0.145020 0.005544 0.641151
v -0.125233 -0.015339 0.642758
v -0.144004 -0.015339 0.646658
v -0.126249 -0.036221 0.637254
v -0.145020 -0.036221 0.641151
v -0.129024 -0.051509 0.622213
v -0.147796 -0.051509 0.626109
v -0.132820 -0.057102 0.601662
v -0.151590 -0.057103 0.605560
v -0.136614 -0.051509 0.581111
v -0.155385 -0.051509 0.585008
v -0.139389 -0.036221 0.566067
v -0.158162 -0.036221 0.569966
v 0.286754 0.653328 -0.218071
v 0.286004 0.616656 -0.228902
v 0.289998 0.625584 -0.151797
v 0.283749 0.599585 -0.179275
v 0.257846 0.209501 -0.075476
v 0.261392 0.189578 -0.113669
v 0.257846 0.209501 -0.075476
v 0.254363 0.156946 -0.065836
v 0.217782 0.205099 0.094374
v 0.225758 0.162029 0.101500
v 0.285269 0.688478 -0.211719
v 0.284349 0.657290 -0.221166
v 0.281395 0.661461 -0.123242
v 0.281100 0.629379 -0.147166
v 0.234654 0.056554 0.096778
v 0.281100 0.629379 -0.147166
v 0.234026 0.056554 0.067448
v 0.297179 -0.026622 -0.058540
v 0.298654 0.004466 -0.066752
v 0.324385 0.004466 -0.061811
v 0.297179 0.035553 -0.058541
v 0.322910 0.035553 -0.053589
v 0.293151 0.058310 -0.036074
v 0.318882 0.058310 -0.031128
v 0.287646 0.066640 -0.005385
v 0.313375 0.066640 -0.000438
v 0.282139 0.058310 0.025298
v 0.307870 0.058310 0.030244
v 0.278111 0.035553 0.047758
v 0.303842 0.035553 0.052705
v 0.276639 0.004466 0.055977
v 0.302368 0.004466 0.060928
v 0.278111 -0.026622 0.047758
v 0.303842 -0.026622 0.052706
v 0.282139 -0.049382 0.025298
v 0.307870 -0.049382 0.030244
v 0.287645 -0.057711 -0.005385
v 0.313375 -0.057711 -0.000438
v 0.293151 -0.049382 -0.036074
v 0.318882 -0.049382 -0.031128
v 0.322910 -0.026622 -0.053589
v -0.314683 -0.026623 -0.053589
v -0.316159 0.004466 -0.061811
v -0.290427 0.004466 -0.066751
v -0.288952 0.035553 -0.058541
v -0.314684 0.035553 -0.053589
v -0.284925 0.058310 -0.036074
v -0.310655 0.058310 -0.031128
v -0.279419 0.066640 -0.005385
v -0.305149 0.066640 -0.000438
v -0.273913 0.058309 0.025299
v -0.299644 0.058309 0.030244
v -0.269885 0.035553 0.047758
v -0.295615 0.035553 0.052705
v -0.268413 0.004466 0.055977
v -0.294142 0.004466 0.060928
v -0.269885 -0.026622 0.047758
v -0.295615 -0.026623 0.052706
v -0.273913 -0.049382 0.025298
v -0.299644 -0.049382 0.030244
v -0.279419 -0.057711 -0.005385
v -0.305149 -0.057711 -0.000438
v -0.284925 -0.049382 -0.036074
v -0.310655 -0.049382 -0.031128
v -0.288952 -0.026622 -0.058540
v 0.316647 0.665582 -0.219936
v 0.132668 0.665582 -0.218680
v 0.316718 0.640433 -0.251233
v -0.105333 0.665582 -0.216799
v 0.316718 0.640433 -0.251233
v -0.290823 0.640432 -0.251232
v 0.135964 0.664545 -0.277194
v -0.290823 0.640432 -0.251232
v -0.106408 0.664544 -0.277194
v -0.290823 0.664544 -0.277193
v 0.135964 0.664545 -0.277194
v -0.106408 0.664544 -0.277194
v 0.135964 0.685718 -0.238893
v -0.106408 0.688090 -0.237556
v 0.132668 0.665582 -0.218680
v -0.105333 0.665582 -0.216799
v 0.316689 0.664545 -0.277194
v 0.135964 0.664545 -0.277194
v 0.316557 0.683524 -0.240130
v 0.135964 0.685718 -0.238893
v 0.316647 0.665582 -0.219936
v 0.132668 0.665582 -0.218680
v -0.252418 0.601777 -0.199596
v -0.306226 0.601777 -0.196785
v -0.310614 0.637505 -0.280846
v -0.256805 0.637505 -0.283656
v -0.257559 0.669160 -0.298097
v -0.311367 0.669159 -0.295288
v -0.257205 0.697738 -0.291310
v -0.311013 0.697738 -0.288501
v -0.255852 0.714461 -0.265376
v -0.309659 0.714460 -0.262567
v -0.251356 0.687337 -0.179270
v -0.305165 0.687336 -0.176462
v -0.139389 -0.036221 0.566067
v -0.140406 -0.015339 0.560566
v -0.139389 0.005544 0.566067
v -0.136614 0.020828 0.581111
v -0.132819 0.026423 0.601662
v -0.132435 -0.015339 0.601581
v -0.129024 0.020828 0.622214
v -0.126249 0.005544 0.637254
v -0.125233 -0.015339 0.642758
v -0.126249 -0.036221 0.637254
v -0.129024 -0.051509 0.622213
v -0.132820 -0.057102 0.601662
v -0.136614 -0.051509 0.581111
v 0.157995 0.005545 0.569966
v 0.136447 0.020828 0.581111
v 0.155218 0.020828 0.585008
v 0.132652 0.026424 0.601662
v 0.151424 0.026424 0.605559
v 0.128857 0.020828 0.622213
v 0.147629 0.020828 0.626109
v 0.126082 0.005544 0.637254
v 0.144854 0.005544 0.641151
v 0.125067 -0.015339 0.642758
v 0.143837 -0.015339 0.646658
v 0.126082 -0.036221 0.637254
v 0.144854 -0.036221 0.641151
v 0.128857 -0.051509 0.622213
v 0.147629 -0.051509 0.626109
v 0.132653 -0.057102 0.601662
v 0.151423 -0.057102 0.605559
v 0.136447 -0.051509 0.581111
v 0.155218 -0.051509 0.585008
v 0.139222 -0.036221 0.566066
v 0.157995 -0.036221 0.569966
v 0.140239 -0.015339 0.560566
v 0.159011 -0.015339 0.564461
v -0.268413 0.004466 0.055977
v -0.269885 -0.026622 0.047758
v -0.273913 -0.049382 0.025298
v -0.278893 0.004466 -0.005489
v -0.279419 -0.057711 -0.005385
v -0.284925 -0.049382 -0.036074
v -0.288952 -0.026622 -0.058540
v -0.290427 0.004466 -0.066751
v -0.288952 0.035553 -0.058541
v -0.284925 0.058310 -0.036074
v -0.279419 0.066640 -0.005385
v -0.273913 0.058309 0.025299
v -0.269885 0.035553 0.047758
v 0.276639 0.004466 0.055977
v 0.278111 -0.026622 0.047758
v 0.282139 -0.049382 0.025298
v 0.287645 -0.057711 -0.005385
v 0.293151 -0.049382 -0.036074
v 0.287119 0.004466 -0.005489
v 0.297179 -0.026622 -0.058540
v 0.298654 0.004466 -0.066752
v 0.297179 0.035553 -0.058541
v 0.293151 0.058310 -0.036074
v 0.287646 0.066640 -0.005385
v 0.282139 0.058310 0.025298
v 0.278111 0.035553 0.047758
vt 1.134766 0.819336
vt 1.134766 0.825195
vt 1.134766 0.814453
vt 1.075195 0.712891
vt 1.075195 0.712891
vt 1.075195 0.712891
vt 1.075195 0.702148
vt 1.075195 0.702148
vt 1.376953 -0.748047
vt 1.338867 -0.748047
vt 1.371094 0.202148
vt 1.309570 -0.748047
vt 1.294922 -0.748047
vt 1.300781 -0.748047
vt 1.325195 -0.748047
vt 1.360352 -0.748047
vt 1.398438 -0.748047
vt 1.427734 -0.748047
vt 1.442383 -0.748047
vt 1.436523 -0.748047
vt 1.412109 -0.748047
vt 1.118164 0.288086
vt 1.118164 0.288086
vt 1.120117 0.309570
vt 1.120117 0.309570
vt 1.083984 0.695312
vt 1.082031 0.703125
vt 1.083008 0.687500
vt 1.081055 0.683594
vt 1.075195 0.711914
vt 1.073242 0.690430
vt 1.083008 0.687500
vt 1.081055 0.683594
vt 1.083984 0.695312
vt 1.082031 0.703125
vt 1.075195 0.711914
vt 1.073242 0.690430
vt 1.134766 0.814453
vt 1.134766 0.825195
vt 1.134766 0.814453
vt 1.351562 0.640625
vt 1.359375 0.633789
vt 1.351562 0.640625
vt 1.359375 0.633789
vt 1.361328 0.637695
vt 1.361328 0.637695
vt 1.362305 0.645508
vt 1.362305 0.645508
vt 1.361328 0.653320
vt 1.360352 0.653320
vt 1.353516 0.662109
vt 1.353516 0.662109
vt 1.120117 0.309570
vt 1.118164 0.288086
vt 1.120117 0.309570
vt 1.118164 0.288086
vt 1.073242 0.690430
vt 1.081055 0.683594
vt 1.075195 0.711914
vt 1.082031 0.703125
vt 1.083984 0.695312
vt 1.083008 0.687500
vt 1.338867 -0.748047
vt 1.338867 -0.748047
vt 1.376953 -0.748047
vt 1.360352 0.809570
vt 1.360352 0.809570
vt 1.360352 0.809570
vt 1.361328 0.809570
vt 1.361328 0.809570
vt 1.304688 0.809570
vt 1.304688 0.809570
vt 1.301758 0.791992
vt 1.305664 0.809570
vt 1.306641 0.791992
vt 1.301758 0.791992
vt 1.301758 0.791992
vt 1.304688 0.809570
vt 1.300781 0.791992
vt 1.303711 0.809570
vt 1.305664 0.809570
vt 1.305664 0.809570
vt 1.305664 0.791992
vt 1.303711 0.809570
vt 1.300781 0.791992
vt 1.305664 0.791992
vt 1.305664 0.791992
vt 1.305664 0.809570
vt 1.306641 0.791992
vt 1.305664 0.809570
vt 1.305664 0.791992
vt 1.305664 0.791992
vt 1.306641 0.791992
vt 1.300781 0.791992
vt 1.301758 0.791992
vt 1.305664 0.809570
vt 1.305664 0.809570
vt 1.305664 0.809570
vt 1.304688 0.809570
vt 1.303711 0.809570
vt 1.356445 0.790039
vt 1.356445 0.790039
vt 1.360352 0.809570
vt 1.361328 0.790039
vt 1.361328 0.809570
vt 1.146484 0.789062
vt 1.146484 0.789062
vt 1.146484 0.772461
vt 1.146484 0.789062
vt 1.146484 0.769531
vt 1.362305 0.791992
vt 1.362305 0.791992
vt 1.361328 0.809570
vt 1.357422 0.791992
vt 1.360352 0.809570
vt 1.360352 0.809570
vt 1.360352 0.809570
vt 1.356445 0.790039
vt 1.360352 0.809570
vt 1.357422 0.791992
vt 1.359375 0.795898
vt 1.359375 0.795898
vt 1.359375 0.795898
vt 1.359375 0.801758
vt 1.359375 0.801758
vt 1.359375 0.795898
vt 1.359375 0.795898
vt 1.361328 0.802734
vt 1.359375 0.795898
vt 1.361328 0.802734
vt 1.359375 0.801758
vt 1.359375 0.801758
vt 1.361328 0.802734
vt 1.359375 0.801758
vt 1.361328 0.802734
vt 1.361328 0.809570
vt 1.361328 0.809570
vt 1.360352 0.809570
vt 1.361328 0.809570
vt 1.360352 0.809570
vt 1.155273 0.783203
vt 1.155273 0.783203
vt 1.155273 0.791992
vt 1.155273 0.784180
vt 1.155273 0.791992
vt 1.139648 0.434570
vt 1.139648 0.434570
vt 1.140625 0.437500
vt 1.143555 0.429688
vt 1.144531 0.432617
vt 1.306641 0.791992
vt 1.306641 0.791992
vt 1.301758 0.791992
vt 1.305664 0.809570
vt 1.304688 0.809570
vt 1.303711 0.809570
vt 1.303711 0.809570
vt 1.304688 0.809570
vt 1.300781 0.791992
vt 1.301758 0.791992
vt 1.300781 0.791992
vt 1.300781 0.791992
vt 1.305664 0.791992
vt 1.303711 0.809570
vt 1.305664 0.809570
vt 1.305664 0.809570
vt 1.305664 0.809570
vt 1.305664 0.809570
vt 1.306641 0.791992
vt 1.305664 0.791992
vt 1.301758 0.791992
vt 1.301758 0.791992
vt 1.306641 0.791992
vt 1.300781 0.791992
vt 1.305664 0.791992
vt 1.314453 0.793945
vt 1.314453 0.793945
vt 1.314453 0.793945
vt 1.318359 0.792969
vt 1.318359 0.792969
vt 1.139648 0.436523
vt 1.139648 0.436523
vt 1.143555 0.429688
vt 1.140625 0.439453
vt 1.144531 0.434570
vt 1.135742 0.673828
vt 1.135742 0.673828
vt 1.130859 0.777344
vt 1.134766 0.670898
vt 1.130859 0.777344
vt 1.127930 0.779297
vt 1.125977 0.785156
vt 1.303711 0.809570
vt 1.303711 0.809570
vt 1.305664 0.809570
vt 1.304688 0.809570
vt 1.305664 0.809570
vt 1.361328 0.809570
vt 1.361328 0.809570
vt 1.360352 0.809570
vt 1.361328 0.790039
vt 1.356445 0.790039
vt 1.146484 0.769531
vt 1.146484 0.769531
vt 1.146484 0.772461
vt 1.146484 0.789062
vt 1.146484 0.789062
vt 1.113281 0.809570
vt 1.113281 0.809570
vt 1.115234 0.812500
vt 1.132812 0.661133
vt 1.133789 0.664062
vt 1.360352 0.809570
vt 1.360352 0.809570
vt 1.361328 0.809570
vt 1.357422 0.791992
vt 1.362305 0.791992
vt 1.357422 0.791992
vt 1.357422 0.791992
vt 1.356445 0.790039
vt 1.360352 0.809570
vt 1.360352 0.809570
vt 1.351562 0.791992
vt 1.351562 0.791992
vt 1.349609 0.791992
vt 1.371094 0.643555
vt 1.369141 0.636719
vt 1.375977 0.638672
vt 1.375000 0.630859
vt 1.136719 0.427734
vt 1.136719 0.427734
vt 1.143555 0.419922
vt 1.137695 0.431641
vt 1.144531 0.424805
vt 1.348633 0.763672
vt 1.348633 0.763672
vt 1.348633 0.752930
vt 1.363281 0.764648
vt 1.362305 0.752930
vt 1.365234 0.755859
vt 1.362305 0.752930
vt 1.373047 0.651367
vt 1.371094 0.645508
vt 1.376953 0.647461
vt 1.375977 0.639648
vt 1.115234 0.812500
vt 1.115234 0.812500
vt 1.113281 0.812500
vt 1.133789 0.666016
vt 1.131836 0.662109
vt 1.349609 0.791992
vt 1.349609 0.791992
vt 1.348633 0.791992
vt 1.369141 0.641602
vt 1.368164 0.637695
vt 1.369141 0.641602
vt 1.375977 0.630859
vt 1.375977 0.633789
vt 1.338867 -0.748047
vt 1.376953 -0.748047
vt 1.338867 -0.748047
vt 1.143555 0.423828
vt 1.143555 0.423828
vt 1.142578 0.419922
vt 1.138672 0.429688
vt 1.137695 0.425781
vt 0.915039 -0.639648
vt 0.915039 -0.639648
vt 0.854492 -0.635742
vt 0.914062 -0.708008
vt 0.854492 -0.704102
vt 0.914062 -0.708008
vt 0.854492 -0.838867
vt 0.914062 -0.838867
vt 1.412109 -0.748047
vt 1.371094 0.202148
vt 1.376953 -0.748047
vt 1.338867 -0.748047
vt 1.309570 -0.748047
vt 1.294922 -0.748047
vt 1.300781 -0.748047
vt 1.325195 -0.748047
vt 1.360352 -0.748047
vt 1.398438 -0.748047
vt 1.427734 -0.748047
vt 1.442383 -0.748047
vt 1.436523 -0.748047
vt -0.107422 -0.256836
vt -0.121094 -0.371094
vt -0.107422 -0.375000
vt 1.365234 0.784180
vt 1.365234 0.784180
vt 1.347656 0.787109
vt 1.364258 0.793945
vt 1.347656 0.787109
vt 1.347656 0.797852
vt 1.300781 0.788086
vt 1.300781 0.795898
vt -0.151367 -0.171875
vt -0.151367 -0.256836
vt -0.138672 -0.171875
vt 1.300781 0.795898
vt 1.300781 0.795898
vt 1.300781 0.788086
vt 1.349609 0.796875
vt 1.349609 0.786133
vt 1.364258 0.793945
vt 1.365234 0.784180
vt 1.375000 0.634766
vt 1.375000 0.634766
vt 1.375000 0.630859
vt 1.370117 0.640625
vt 1.369141 0.636719
vt 1.350586 0.790039
vt 1.349609 0.791992
vt 1.364258 0.789062
vt 1.364258 0.789062
vt 1.347656 0.791992
vt 1.365234 0.784180
vt 1.347656 0.791992
vt 1.347656 0.787109
vt 1.299805 0.791992
vt 1.300781 0.788086
vt 1.299805 0.791992
vt 1.300781 0.788086
vt 1.299805 0.790039
vt 1.349609 0.786133
vt 1.348633 0.788086
vt 1.365234 0.784180
vt 1.365234 0.784180
vt 1.338867 -0.748047
vt 1.376953 -0.748047
vt 1.371094 0.202148
vt 1.412109 -0.748047
vt 1.436523 -0.748047
vt 1.442383 -0.748047
vt 1.427734 -0.748047
vt 1.398438 -0.748047
vt 1.360352 -0.748047
vt 1.325195 -0.748047
vt 1.300781 -0.748047
vt 1.294922 -0.748047
vt 1.309570 -0.748047
vt 1.337891 0.297852
vt 1.334961 0.297852
vt 1.376953 1.146484
vt 1.342773 0.297852
vt 1.359375 0.297852
vt 1.380859 0.297852
vt 1.401367 0.297852
vt 1.415039 0.297852
vt 1.418945 0.297852
vt 1.411133 0.297852
vt 1.393555 0.297852
vt 1.372070 0.297852
vt 1.351562 0.297852
vt 1.351562 0.297852
vt 1.372070 0.297852
vt 1.376953 1.146484
vt 1.393555 0.297852
vt 1.411133 0.297852
vt 1.418945 0.297852
vt 1.415039 0.297852
vt 1.401367 0.297852
vt 1.380859 0.297852
vt 1.359375 0.297852
vt 1.342773 0.297852
vt 1.334961 0.297852
vt 1.337891 0.297852
vt 1.375977 0.643555
vt 1.375977 0.643555
vt 1.375977 0.639648
vt 1.372070 0.648438
vt 1.371094 0.645508
vt 1.372070 0.648438
vt 1.362305 0.752930
vt 1.364258 0.760742
vt 1.362305 0.752930
vt 1.344727 0.758789
vt 1.348633 0.752930
vt 1.344727 0.758789
vt 1.348633 0.752930
vt 1.344727 0.758789
vt 1.364258 0.751953
vt 1.365234 0.758789
vt 1.371094 0.646484
vt 1.372070 0.650391
vt 1.375977 0.639648
vt 1.376953 0.644531
vt 1.073242 0.690430
vt 1.075195 0.711914
vt 1.081055 0.683594
vt 1.082031 0.703125
vt 1.083008 0.687500
vt 1.083984 0.695312
vt 1.125977 0.785156
vt 1.127930 0.781250
vt 1.128906 0.776367
vt 1.135742 0.668945
vt 1.128906 0.776367
vt 1.136719 0.671875
vt 1.148438 0.756836
vt 1.149414 0.750000
vt 1.132812 0.755859
vt 1.129883 0.750000
vt 1.132812 0.755859
vt 1.129883 0.750000
vt 1.132812 0.755859
vt 1.149414 0.751953
vt 1.132812 0.755859
vt 1.148438 0.756836
vt 1.364258 0.793945
vt 1.364258 0.789062
vt 1.347656 0.797852
vt 1.347656 0.791992
vt 1.300781 0.795898
vt 1.299805 0.791992
vt 1.300781 0.795898
vt 1.299805 0.790039
vt 1.300781 0.795898
vt 1.348633 0.788086
vt 1.349609 0.796875
vt 1.365234 0.784180
vt 1.364258 0.793945
vt 1.338867 -0.748047
vt 1.309570 -0.748047
vt 1.309570 -0.748047
vt 1.294922 -0.748047
vt 1.294922 -0.748047
vt 1.300781 -0.748047
vt 1.300781 -0.748047
vt 1.325195 -0.748047
vt 1.325195 -0.748047
vt 1.360352 -0.748047
vt 1.360352 -0.748047
vt 1.398438 -0.748047
vt 1.398438 -0.748047
vt 1.427734 -0.748047
vt 1.427734 -0.748047
vt 1.442383 -0.748047
vt 1.442383 -0.748047
vt 1.436523 -0.748047
vt 1.436523 -0.748047
vt 1.412109 -0.748047
vt 1.412109 -0.748047
vt 1.376953 -0.748047
vt 1.375977 0.639648
vt 1.376953 0.648438
vt 1.371094 0.646484
vt 1.373047 0.653320
vt 1.364258 0.751953
vt 1.367188 0.756836
vt 1.364258 0.751953
vt 1.363281 0.765625
vt 1.348633 0.752930
vt 1.348633 0.764648
vt 1.375977 0.630859
vt 1.376953 0.638672
vt 1.368164 0.637695
vt 1.370117 0.645508
vt 1.348633 0.791992
vt 1.370117 0.645508
vt 1.351562 0.791992
vt 1.401367 0.298828
vt 1.380859 0.298828
vt 1.401367 0.297852
vt 1.380859 0.297852
vt 1.359375 0.298828
vt 1.359375 0.297852
vt 1.342773 0.298828
vt 1.342773 0.297852
vt 1.334961 0.298828
vt 1.334961 0.297852
vt 1.348633 0.393555
vt 1.337891 0.297852
vt 1.351562 0.298828
vt 1.351562 0.297852
vt 1.372070 0.298828
vt 1.372070 0.297852
vt 1.393555 0.298828
vt 1.393555 0.297852
vt 1.411133 0.298828
vt 1.411133 0.297852
vt 1.418945 0.298828
vt 1.418945 0.297852
vt 1.415039 0.298828
vt 1.415039 0.297852
vt 1.401367 0.297852
vt 1.380859 0.297852
vt 1.380859 0.298828
vt 1.359375 0.298828
vt 1.359375 0.297852
vt 1.342773 0.298828
vt 1.342773 0.297852
vt 1.334961 0.298828
vt 1.334961 0.297852
vt 1.348633 0.393555
vt 1.337891 0.297852
vt 1.351562 0.298828
vt 1.351562 0.297852
vt 1.372070 0.298828
vt 1.372070 0.297852
vt 1.393555 0.298828
vt 1.393555 0.297852
vt 1.411133 0.298828
vt 1.411133 0.297852
vt 1.418945 0.298828
vt 1.418945 0.297852
vt 1.415039 0.298828
vt 1.415039 0.297852
vt 1.401367 0.298828
vt -0.151367 -0.360352
vt -0.137695 -0.364258
vt -0.151367 -0.256836
vt -0.121094 -0.371094
vt -0.151367 -0.256836
vt -0.107422 -0.256836
vt -0.138672 -0.171875
vt -0.107422 -0.256836
vt -0.120117 -0.171875
vt -0.107422 -0.171875
vt 0.612305 -0.849609
vt 0.612305 -0.663086
vt 0.632812 -0.849609
vt 0.633789 -0.663086
vt 0.643555 -0.846680
vt 0.644531 -0.664062
vt 0.913086 -0.840820
vt 0.854492 -0.840820
vt 0.913086 -0.718750
vt 0.854492 -0.714844
vt 0.913086 -0.652344
vt 0.853516 -0.648438
vt 1.353516 0.662109
vt 1.353516 0.662109
vt 1.361328 0.653320
vt 1.360352 0.653320
vt 1.362305 0.645508
vt 1.362305 0.645508
vt 1.361328 0.637695
vt 1.361328 0.637695
vt 1.359375 0.633789
vt 1.359375 0.633789
vt 1.351562 0.640625
vt 1.351562 0.640625
vt 1.412109 -0.748047
vt 1.376953 -0.748047
vt 1.371094 0.202148
vt 1.338867 -0.748047
vt 1.309570 -0.748047
vt 1.294922 -0.748047
vt 1.300781 -0.748047
vt 1.325195 -0.748047
vt 1.360352 -0.748047
vt 1.398438 -0.748047
vt 1.427734 -0.748047
vt 1.442383 -0.748047
vt 1.436523 -0.748047
vt 1.338867 -0.748047
vt 1.309570 -0.748047
vt 1.309570 -0.748047
vt 1.294922 -0.748047
vt 1.294922 -0.748047
vt 1.300781 -0.748047
vt 1.300781 -0.748047
vt 1.325195 -0.748047
vt 1.325195 -0.748047
vt 1.360352 -0.748047
vt 1.360352 -0.748047
vt 1.398438 -0.748047
vt 1.398438 -0.748047
vt 1.427734 -0.748047
vt 1.427734 -0.748047
vt 1.442383 -0.748047
vt 1.442383 -0.748047
vt 1.436523 -0.748047
vt 1.436523 -0.748047
vt 1.412109 -0.748047
vt 1.412109 -0.748047
vt 1.376953 -0.748047
vt 1.351562 0.298828
vt 1.372070 0.298828
vt 1.376953 1.147461
vt 1.393555 0.298828
vt 1.411133 0.298828
vt 1.418945 0.298828
vt 1.415039 0.298828
vt 1.401367 0.298828
vt 1.380859 0.298828
vt 1.359375 0.298828
vt 1.342773 0.298828
vt 1.334961 0.298828
vt 1.348633 0.393555
vt 1.372070 0.298828
vt 1.376953 1.147461
vt 1.393555 0.298828
vt 1.411133 0.298828
vt 1.418945 0.298828
vt 1.415039 0.298828
vt 1.401367 0.298828
vt 1.380859 0.298828
vt 1.359375 0.298828
vt 1.342773 0.298828
vt 1.334961 0.298828
vt 1.348633 0.393555
vt 1.351562 0.298828
vn 0.0000 -0.0824 -0.9966
vn 0.0000 0.0000 1.0000
vn -0.0011 -0.7551 0.6556
vn -0.0005 -0.1631 -0.9866
vn -0.0002 -0.1609 -0.9870
vn -0.0005 -0.1633 -0.9866
vn 0.9850 0.0000 0.1722
vn 0.9848 0.0047 0.1734
vn 0.9834 0.0000 0.1815
vn 0.9842 0.0082 0.1769
vn 0.9833 0.0095 0.1816
vn 0.9825 0.0082 0.1862
vn 0.9818 0.0048 0.1896
vn 0.9816 0.0000 0.1908
vn 0.9818 -0.0048 0.1896
vn 0.9825 -0.0082 0.1862
vn 0.9833 -0.0095 0.1816
vn 0.9842 -0.0082 0.1769
vn 0.9848 -0.0047 0.1734
vn 0.0507 -0.2314 0.9715
vn 0.0508 -0.2314 0.9715
vn -0.9986 0.0000 0.0521
vn 0.9986 0.0000 -0.0521
vn -0.0156 0.9539 0.2997
vn 0.0070 0.9911 -0.1331
vn 0.0425 0.5778 -0.8150
vn 0.0519 -0.0974 -0.9939
vn 0.0363 -0.7166 -0.6965
vn 0.0204 -0.9205 -0.3901
vn -0.0508 -0.2314 0.9715
vn -0.0507 -0.2314 0.9715
vn -0.9986 0.0000 -0.0521
vn -0.2032 -0.0000 -0.9791
vn -0.1762 0.4985 -0.8488
vn 0.0087 -0.6831 0.7303
vn 0.0127 -0.9937 0.1116
vn 0.8675 -0.0259 0.4967
vn 0.9854 -0.0272 -0.1677
vn 0.9857 -0.0284 -0.1660
vn 0.9854 -0.0269 -0.1682
vn 0.1898 -0.2309 0.9543
vn 0.3760 -0.4248 0.8235
vn 0.3579 -0.4304 0.8286
vn 0.3800 -0.4236 0.8223
vn -0.6231 -0.0140 0.7820
vn -0.9868 -0.0249 0.1598
vn -0.9857 -0.0232 0.1669
vn -0.9871 -0.0253 0.1579
vn -0.9697 -0.1006 0.2227
vn -0.4156 -0.0357 -0.9088
vn -0.3988 -0.0402 -0.9162
vn -0.4192 -0.0347 -0.9072
vn 0.0000 0.7569 0.6535
vn 0.0000 1.0000 0.0002
vn 0.0000 1.0000 0.0000
vn 0.0347 -0.5987 0.8002
vn 0.0574 -0.9906 0.1244
vn 0.0575 -0.9906 0.1244
vn -0.5139 -0.0105 0.8578
vn -0.9810 -0.0185 0.1928
vn -0.9820 -0.0197 0.1878
vn -0.9804 -0.0177 0.1961
vn -0.9254 -0.3784 -0.0179
vn -0.1477 -0.0377 -0.9883
vn -0.1200 -0.0445 -0.9918
vn -0.1558 -0.0357 -0.9871
vn 0.7612 -0.0148 0.6483
vn 0.9810 -0.0200 -0.1927
vn 0.9808 -0.0193 -0.1939
vn 0.9812 -0.0206 -0.1918
vn 0.0512 -0.2415 0.9690
vn 0.2980 -0.4231 0.8556
vn 0.1373 -0.4631 0.8756
vn 0.3239 -0.4153 0.8500
vn 0.0000 0.1584 0.9874
vn 0.0000 0.3128 0.9498
vn 0.0000 0.9702 0.2423
vn 0.0000 0.4702 -0.8825
vn 0.0000 0.4701 -0.8826
vn 0.0000 -0.6513 0.7588
vn 0.0000 -0.9884 0.1517
vn 0.0000 -0.9884 0.1515
vn -0.0087 -0.6831 0.7303
vn -0.0127 -0.9936 0.1119
vn -0.0127 -0.9937 0.1116
vn 0.0000 -0.9975 0.0708
vn 0.0000 -0.0781 -0.9969
vn -0.3786 -0.6809 0.6269
vn -0.4410 -0.8250 -0.3532
vn -0.4335 -0.8256 -0.3612
vn -0.4153 -0.8266 -0.3798
vn -0.7532 -0.0205 0.6574
vn -0.9855 -0.0272 -0.1673
vn -0.9857 -0.0284 -0.1660
vn -0.9860 -0.0295 -0.1643
vn -0.1406 -0.2320 0.9625
vn -0.2644 -0.4361 0.8602
vn 0.5324 -0.0136 0.8464
vn 0.9868 -0.0249 0.1595
vn 0.9857 -0.0232 0.1669
vn 0.9850 -0.0222 0.1711
vn 0.9876 -0.1325 0.0834
vn 0.2936 -0.0394 -0.9551
vn 0.0000 0.7344 0.6786
vn 0.0000 1.0000 0.0003
vn 0.0014 0.7615 0.6481
vn 0.0001 0.9966 0.0823
vn 0.0015 0.9959 0.0898
vn 0.0000 0.9967 0.0813
vn 0.3456 -0.6640 0.6630
vn 0.4926 -0.8206 -0.2896
vn 0.4653 -0.8272 -0.3149
vn 0.5286 -0.8098 -0.2545
vn 0.9278 -0.3587 -0.1020
vn 0.0241 -0.0093 0.9997
vn 0.4494 -0.1670 -0.8776
vn 0.8442 -0.5358 -0.0146
vn 0.5572 -0.5604 -0.6128
vn 0.3457 -0.7980 -0.4936
vn -0.0250 -0.6315 0.7750
vn -0.0392 -0.9910 0.1275
vn 0.6181 -0.0111 0.7860
vn 0.9810 -0.0185 0.1931
vn 0.9820 -0.0197 0.1878
vn 0.9822 -0.0201 0.1865
vn 0.4503 -0.0884 0.8885
vn 0.1745 -0.0395 -0.9839
vn 0.1275 -0.0543 -0.9903
vn 0.1129 -0.0587 -0.9919
vn -0.8119 -0.1285 0.5694
vn -0.9572 -0.1614 -0.2404
vn -0.4751 -0.3248 -0.8178
vn -0.4596 -0.3264 -0.8259
vn -0.8840 -0.0241 0.4668
vn -0.9810 -0.0255 -0.1922
vn -0.9807 -0.0246 -0.1937
vn -0.9807 -0.0243 -0.1941
vn 0.0237 -0.2762 0.9608
vn 0.0159 -0.4887 0.8723
vn -0.0761 -0.4747 0.8768
vn -0.0999 -0.4704 0.8768
vn 0.9209 -0.1897 0.3406
vn 0.8474 -0.1643 -0.5048
vn 0.9995 0.0010 0.0307
vn 0.9988 0.0059 0.0490
vn 0.9944 -0.0074 0.1058
vn 0.9945 0.0098 0.1043
vn 0.3847 -0.6699 0.6350
vn 0.4948 -0.8184 -0.2921
vn 0.4815 -0.8228 -0.3019
vn 0.5036 -0.8154 -0.2854
vn 0.7220 -0.1528 0.6748
vn 0.9673 -0.1757 -0.1825
vn 0.9863 -0.0532 -0.1563
vn 0.9238 -0.0318 0.3815
vn 0.9984 -0.0058 -0.0558
vn 0.7487 0.0192 0.6626
vn 0.9998 0.0177 0.0066
vn 0.9997 0.0206 0.0102
vn 0.9995 0.0091 0.0305
vn 0.9994 0.0165 0.0297
vn 0.7838 -0.5869 0.2029
vn 0.4593 -0.3445 -0.8187
vn 0.4443 -0.3469 -0.8260
vn 0.4439 -0.3469 -0.8262
vn 0.2766 0.1459 0.9498
vn 0.4898 0.2606 0.8319
vn 0.2405 0.1534 0.9584
vn 0.5096 0.6044 0.6124
vn 0.3086 0.5405 0.7826
vn 0.4159 0.8505 0.3220
vn 0.3851 0.8585 0.3388
vn 0.2032 -0.0000 -0.9791
vn 0.1762 0.4985 -0.8488
vn -0.3826 -0.7300 0.5662
vn -0.4513 -0.8073 -0.3802
vn -0.4769 -0.8007 -0.3624
vn -0.4994 -0.7943 -0.3459
vn 0.0027 0.3604 0.9328
vn 0.0114 0.6499 0.7599
vn 0.0031 0.3663 0.9304
vn 0.0121 0.9879 0.1546
vn 0.0010 0.8732 0.4874
vn 0.0052 0.8489 -0.5285
vn 0.0000 0.8597 -0.5107
vn -0.9818 -0.0047 -0.1895
vn -0.9834 0.0000 -0.1815
vn -0.9816 0.0000 -0.1908
vn -0.9818 0.0047 -0.1895
vn -0.9825 0.0081 -0.1861
vn -0.9833 0.0094 -0.1816
vn -0.9842 0.0081 -0.1769
vn -0.9848 0.0046 -0.1735
vn -0.9850 0.0000 -0.1722
vn -0.9848 -0.0046 -0.1735
vn -0.9842 -0.0081 -0.1769
vn -0.9833 -0.0094 -0.1816
vn -0.9825 -0.0082 -0.1861
vn 0.0039 -0.8175 0.5759
vn -0.7205 -0.1218 0.6827
vn -0.1361 -0.0230 0.9904
vn -0.9759 -0.1360 -0.1705
vn -0.9509 0.0512 0.3053
vn -0.9759 0.0511 -0.2122
vn -0.9756 -0.0139 -0.2192
vn -0.9756 -0.0172 -0.2190
vn 0.0000 -0.7327 -0.6805
vn 0.7648 -0.0139 0.6441
vn 0.9737 -0.0336 -0.2252
vn 0.9196 -0.3477 -0.1829
vn 0.9132 -0.3663 -0.1785
vn 0.8619 -0.4884 -0.1361
vn 0.8497 -0.5112 -0.1292
vn -0.2966 0.5427 0.7858
vn -0.4762 0.8353 0.2747
vn -0.5219 0.5950 0.6112
vn -0.5324 0.6247 0.5711
vn -0.4044 0.2977 0.8647
vn -0.4029 0.2980 0.8654
vn 0.2976 0.5710 0.7651
vn 0.0621 0.1191 0.9909
vn 0.4577 0.8788 0.1350
vn 0.3781 0.7307 0.5684
vn 0.4574 0.8806 0.1236
vn 0.2977 0.4619 0.8354
vn 0.2790 0.8586 0.4300
vn 0.0018 0.3058 0.9521
vn -0.1726 0.9333 0.3150
vn -0.2040 0.9413 0.2691
vn -0.1497 0.9868 0.0605
vn -0.1386 0.9884 0.0618
vn -0.0542 0.9954 0.0790
vn -0.0421 0.9959 0.0799
vn -0.9848 0.0047 0.1734
vn -0.9850 0.0000 0.1722
vn -0.9834 0.0000 0.1815
vn -0.9848 -0.0047 0.1734
vn -0.9842 -0.0082 0.1769
vn -0.9833 -0.0095 0.1816
vn -0.9825 -0.0082 0.1862
vn -0.9818 -0.0048 0.1896
vn -0.9816 0.0000 0.1908
vn -0.9818 0.0048 0.1896
vn -0.9825 0.0082 0.1862
vn -0.9833 0.0095 0.1816
vn -0.9842 0.0082 0.1769
vn -0.9835 0.0075 0.1809
vn -0.9842 0.0087 0.1766
vn -0.9843 0.0000 0.1765
vn -0.9850 0.0075 0.1723
vn -0.9856 0.0043 0.1691
vn -0.9858 0.0000 0.1680
vn -0.9856 -0.0043 0.1691
vn -0.9850 -0.0075 0.1723
vn -0.9842 -0.0087 0.1766
vn -0.9835 -0.0075 0.1809
vn -0.9829 -0.0044 0.1839
vn -0.9827 0.0000 0.1851
vn -0.9829 0.0044 0.1839
vn 0.9829 0.0044 0.1839
vn 0.9827 0.0000 0.1851
vn 0.9843 0.0000 0.1765
vn 0.9829 -0.0044 0.1839
vn 0.9835 -0.0075 0.1809
vn 0.9842 -0.0087 0.1766
vn 0.9850 -0.0075 0.1723
vn 0.9856 -0.0043 0.1691
vn 0.9858 0.0000 0.1680
vn 0.9856 0.0043 0.1691
vn 0.9850 0.0075 0.1723
vn 0.9842 0.0087 0.1766
vn 0.9835 0.0075 0.1809
vn -0.2775 0.4694 0.8382
vn -0.4903 0.7834 0.3819
vn -0.3286 0.5042 0.7986
vn -0.5462 0.5363 0.6435
vn -0.2693 0.1016 0.9577
vn -0.3679 0.0869 0.9258
vn -0.7393 0.4546 0.4967
vn -0.5371 0.5421 0.6462
vn -0.2472 0.3786 0.8919
vn -0.2626 0.9211 0.2873
vn 0.0001 0.4184 0.9082
vn 0.2463 0.9246 0.2904
vn 0.2405 0.9177 0.3163
vn 0.6705 0.4554 0.5856
vn 0.7014 0.4841 0.5232
vn 0.5910 0.5099 0.6250
vn 0.5864 0.4865 0.6477
vn 0.5521 0.7756 0.3058
vn 0.5465 0.7777 0.3107
vn 0.9986 0.0000 0.0521
vn 0.0325 -0.6532 -0.7565
vn -0.1314 -0.4813 -0.8666
vn -0.4241 -0.6396 -0.6410
vn -0.4481 -0.2050 -0.8702
vn -0.0210 -0.0095 0.9997
vn -0.4547 -0.2050 -0.8667
vn 0.6967 -0.7035 0.1404
vn 0.6850 -0.7158 0.1354
vn 0.3670 -0.8713 0.3258
vn 0.2838 -0.8828 0.3743
vn -0.0003 -0.5544 0.8322
vn -0.2641 -0.8863 0.3804
vn -0.3204 -0.4231 0.8475
vn -0.5393 -0.8341 0.1155
vn -0.0530 -0.0848 0.9950
vn -0.5269 -0.8427 0.1104
vn 0.5741 -0.8171 0.0512
vn 0.5625 -0.8255 0.0453
vn 0.5075 -0.8578 0.0816
vn 0.5049 -0.8609 0.0624
vn 0.4340 -0.5700 0.6977
vn 0.3746 -0.8040 0.4617
vn -0.0107 -0.4011 0.9159
vn -0.4632 -0.7340 0.4966
vn -0.3807 -0.7122 0.5896
vn -0.8661 -0.4761 0.1523
vn -0.8671 -0.4718 0.1598
vn -0.8701 -0.4810 0.1071
vn -0.8695 -0.4823 0.1066
vn -0.1759 0.5017 -0.8469
vn -0.1022 0.8645 -0.4920
vn -0.1010 0.8677 -0.4867
vn -0.0007 1.0000 -0.0035
vn 0.0007 1.0000 0.0036
vn 0.1010 0.8677 0.4867
vn 0.1021 0.8645 0.4921
vn 0.1758 0.5017 0.8470
vn 0.1762 0.4985 0.8488
vn 0.2033 0.0000 0.9791
vn 0.1759 -0.5016 0.8470
vn 0.1762 -0.4985 0.8488
vn 0.1010 -0.8677 0.4867
vn 0.1021 -0.8645 0.4921
vn -0.0007 -1.0000 -0.0035
vn 0.0007 -1.0000 0.0036
vn -0.1021 -0.8645 -0.4920
vn -0.1010 -0.8677 -0.4867
vn -0.1763 -0.4984 -0.8488
vn -0.1759 -0.5016 -0.8470
vn -0.9987 0.0053 0.0511
vn -0.9971 0.0622 0.0444
vn -0.9907 0.1101 0.0802
vn -0.9858 0.1506 0.0743
vn -0.8007 0.0315 0.5981
vn -0.9928 0.0401 -0.1131
vn -0.9181 0.0310 0.3951
vn -0.9823 0.0059 -0.1870
vn -0.9712 -0.1647 -0.1722
vn -0.9658 -0.2051 -0.1588
vn -0.9987 0.0391 -0.0318
vn -0.9988 0.0375 -0.0317
vn -0.9980 0.0435 -0.0448
vn -0.9426 0.0420 0.3313
vn -0.9959 0.0883 0.0177
vn -0.0279 0.0025 0.9996
vn -0.9957 0.0898 0.0213
vn 0.1636 -0.4998 -0.8505
vn 0.1886 -0.0001 -0.9820
vn 0.1634 -0.5017 -0.8495
vn 0.1635 0.5000 -0.8505
vn 0.1634 0.5018 -0.8494
vn 0.0945 0.8657 -0.4916
vn 0.0939 0.8674 -0.4886
vn 0.0004 1.0000 -0.0020
vn -0.0004 1.0000 0.0020
vn -0.0939 0.8674 0.4887
vn -0.0945 0.8656 0.4917
vn -0.1633 0.5017 0.8495
vn -0.1635 0.5000 0.8505
vn -0.1889 0.0000 0.9820
vn -0.1634 -0.5017 0.8495
vn -0.1635 -0.4999 0.8505
vn -0.0939 -0.8674 0.4887
vn -0.0945 -0.8656 0.4917
vn 0.0004 -1.0000 -0.0020
vn -0.0004 -1.0000 0.0020
vn 0.0945 -0.8657 -0.4916
vn 0.0939 -0.8674 -0.4886
vn -0.1634 -0.5017 -0.8495
vn -0.1886 -0.0001 -0.9820
vn -0.1635 0.5000 -0.8505
vn -0.1634 0.5018 -0.8494
vn -0.0945 0.8657 -0.4916
vn -0.0939 0.8674 -0.4886
vn -0.0004 1.0000 -0.0020
vn 0.0004 1.0000 0.0020
vn 0.0939 0.8674 0.4887
vn 0.0945 0.8656 0.4917
vn 0.1633 0.5017 0.8495
vn 0.1635 0.5000 0.8505
vn 0.1889 0.0000 0.9820
vn 0.1634 -0.5017 0.8495
vn 0.1635 -0.4999 0.8505
vn 0.0939 -0.8674 0.4887
vn 0.0945 -0.8656 0.4917
vn -0.0004 -1.0000 -0.0020
vn 0.0004 -1.0000 0.0020
vn -0.0945 -0.8657 -0.4916
vn -0.0939 -0.8674 -0.4886
vn -0.1636 -0.4998 -0.8505
vn 0.0043 -0.7795 0.6264
vn 0.0049 -0.7777 0.6286
vn 0.0023 -0.4175 0.9087
vn 0.0002 -0.8066 0.5911
vn 0.0000 -0.1473 0.9891
vn 0.0000 -0.1460 0.9893
vn 0.0000 -0.8901 0.4557
vn 0.0000 0.8751 -0.4838
vn 0.0049 0.8615 -0.5076
vn 0.0069 0.9942 0.1076
vn 0.0076 0.9908 0.1353
vn 0.0104 0.7053 0.7088
vn 0.0058 0.6781 0.7349
vn 0.0000 0.8901 -0.4558
vn 0.0063 0.8773 -0.4798
vn 0.0089 0.9925 0.1220
vn 0.0080 0.9863 0.1646
vn 0.0128 0.7437 0.6684
vn 0.0048 0.7080 0.7061
vn -0.0204 -0.9205 -0.3901
vn -0.0363 -0.7166 -0.6965
vn -0.0519 -0.0974 -0.9939
vn -0.0425 0.5778 -0.8150
vn -0.0070 0.9911 -0.1331
vn 0.0156 0.9539 0.2997
vn 0.9818 -0.0047 -0.1895
vn 0.9816 0.0000 -0.1908
vn 0.9834 0.0000 -0.1815
vn 0.9818 0.0047 -0.1895
vn 0.9825 0.0081 -0.1861
vn 0.9833 0.0094 -0.1816
vn 0.9842 0.0081 -0.1769
vn 0.9848 0.0046 -0.1735
vn 0.9850 0.0000 -0.1722
vn 0.9848 -0.0046 -0.1735
vn 0.9842 -0.0081 -0.1769
vn 0.9833 -0.0094 -0.1816
vn 0.9825 -0.0082 -0.1861
vn 0.1759 0.5017 -0.8469
vn 0.1022 0.8645 -0.4920
vn 0.1010 0.8677 -0.4867
vn 0.0007 1.0000 -0.0035
vn -0.0007 1.0000 0.0036
vn -0.1010 0.8677 0.4867
vn -0.1021 0.8645 0.4921
vn -0.1758 0.5017 0.8470
vn -0.1762 0.4985 0.8488
vn -0.2034 0.0000 0.9791
vn -0.1759 -0.5016 0.8470
vn -0.1762 -0.4985 0.8488
vn -0.1010 -0.8677 0.4867
vn -0.1021 -0.8645 0.4921
vn 0.0007 -1.0000 -0.0035
vn -0.0007 -1.0000 0.0036
vn 0.1021 -0.8645 -0.4920
vn 0.1010 -0.8677 -0.4867
vn 0.1763 -0.4984 -0.8488
vn 0.1759 -0.5016 -0.8470
vn 0.9856 0.0042 -0.1692
vn 0.9857 0.0000 -0.1681
vn 0.9843 0.0000 -0.1765
vn 0.9856 -0.0042 -0.1692
vn 0.9850 -0.0074 -0.1723
vn 0.9842 -0.0086 -0.1766
vn 0.9835 -0.0075 -0.1808
vn 0.9829 -0.0043 -0.1838
vn 0.9827 0.0000 -0.1850
vn 0.9829 0.0043 -0.1838
vn 0.9835 0.0075 -0.1808
vn 0.9842 0.0086 -0.1766
vn 0.9850 0.0074 -0.1723
vn -0.9857 0.0000 -0.1681
vn -0.9843 0.0000 -0.1765
vn -0.9856 -0.0042 -0.1692
vn -0.9850 -0.0074 -0.1723
vn -0.9842 -0.0086 -0.1766
vn -0.9835 -0.0075 -0.1808
vn -0.9829 -0.0043 -0.1838
vn -0.9827 0.0000 -0.1850
vn -0.9829 0.0043 -0.1838
vn -0.9835 0.0075 -0.1808
vn -0.9842 0.0086 -0.1766
vn -0.9850 0.0074 -0.1723
vn -0.9856 0.0042 -0.1692
usemtl STrolleyCol
s 1
f 1/1/1 2/2/1 3/3/1
f 4/4/2 5/5/3 6/6/4
f 5/5/3 7/7/5 6/6/4
f 6/6/4 7/7/5 8/8/6
f 9/9/7 10/10/8 15/11/9
f 10/10/8 11/12/10 15/11/9
f 11/12/10 12/13/11 15/11/9
f 12/13/11 13/14/12 15/11/9
f 13/14/12 14/15/13 15/11/9
f 14/15/13 16/16/14 15/11/9
f 16/16/14 17/17/15 15/11/9
f 17/17/15 18/18/16 15/11/9
f 18/18/16 19/19/17 15/11/9
f 19/19/17 20/20/18 15/11/9
f 20/20/18 21/21/19 15/11/9
f 15/11/9 21/21/19 9/9/7
f 22/22/20 24/23/20 23/24/20
f 23/24/20 24/23/20 25/25/21
f 26/26/22 28/27/22 27/28/22
f 27/28/22 28/27/22 29/29/22
f 28/27/22 30/30/22 29/29/22
f 29/29/22 30/30/22 31/31/22
f 32/32/23 35/33/23 33/34/23
f 33/34/23 35/33/23 34/35/23
f 34/35/23 35/33/23 36/36/23
f 35/33/23 37/37/23 36/36/23
f 38/38/1 39/39/1 40/40/1
f 41/41/24 44/42/25 42/43/24
f 42/43/24 44/42/25 43/44/25
f 43/44/25 44/42/25 46/45/26
f 44/42/25 45/46/26 46/45/26
f 45/46/26 47/47/27 46/45/26
f 46/45/26 47/47/27 48/48/27
f 48/48/27 47/47/27 50/49/28
f 47/47/27 49/50/28 50/49/28
f 49/50/28 51/51/29 50/49/28
f 50/49/28 51/51/29 52/52/29
f 53/53/30 55/54/31 54/55/31
f 54/55/31 55/54/31 56/56/31
f 57/57/32 59/58/32 58/59/32
f 58/59/32 59/58/32 60/60/32
f 60/60/32 59/58/32 61/61/32
f 59/58/32 62/62/32 61/61/32
f 422/63/33 63/64/34 64/65/33
f 65/66/2 66/67/35 67/68/36
f 66/67/35 68/69/36 67/68/36
f 67/68/36 68/69/36 69/70/36
f 70/71/2 71/72/37 72/73/38
f 71/72/37 73/74/39 72/73/38
f 72/73/38 73/74/39 74/75/40
f 75/76/2 76/77/41 77/78/42
f 76/77/41 78/79/43 77/78/42
f 77/78/42 78/79/43 79/80/44
f 80/81/2 81/82/45 82/83/46
f 81/82/45 83/84/47 82/83/46
f 82/83/46 83/84/47 84/85/48
f 85/86/2 86/87/49 87/88/50
f 86/87/49 88/89/51 87/88/50
f 87/88/50 88/89/51 89/90/52
f 90/91/2 91/92/53 92/93/54
f 91/92/53 93/94/55 92/93/54
f 92/93/54 93/94/55 94/95/55
f 95/96/2 96/97/56 97/98/57
f 96/97/56 98/99/57 97/98/57
f 97/98/57 98/99/57 99/100/58
f 100/101/2 101/102/59 102/103/60
f 101/102/59 103/104/61 102/103/60
f 102/103/60 103/104/61 104/105/62
f 105/106/2 106/107/63 107/108/64
f 106/107/63 108/109/65 107/108/64
f 107/108/64 108/109/65 109/110/66
f 110/111/2 111/112/67 112/113/68
f 111/112/67 113/114/69 112/113/68
f 112/113/68 113/114/69 114/115/70
f 115/116/2 116/117/71 117/118/72
f 116/117/71 118/119/73 117/118/72
f 117/118/72 118/119/73 119/120/74
f 120/121/2 121/122/75 122/123/76
f 121/122/75 123/124/76 122/123/76
f 122/123/76 123/124/76 124/125/76
f 125/126/2 126/127/77 127/128/78
f 126/127/77 128/129/79 127/128/78
f 127/128/78 128/129/79 129/130/79
f 130/131/2 131/132/80 132/133/81
f 131/132/80 133/134/82 132/133/81
f 132/133/81 133/134/82 134/135/82
f 135/136/2 136/137/83 137/138/84
f 136/137/83 138/139/85 137/138/84
f 137/138/84 138/139/85 139/140/85
f 140/141/2 141/142/86 142/143/87
f 141/142/86 143/144/87 142/143/87
f 142/143/87 143/144/87 144/145/87
f 145/146/2 146/147/88 147/148/89
f 146/147/88 148/149/90 147/148/89
f 147/148/89 148/149/90 149/150/91
f 150/151/2 151/152/92 152/153/93
f 151/152/92 153/154/94 152/153/93
f 152/153/93 153/154/94 154/155/95
f 155/156/2 156/157/96 157/158/97
f 156/157/96 158/159/97 157/158/97
f 157/158/97 158/159/97 159/160/97
f 160/161/2 161/162/98 162/163/99
f 161/162/98 163/164/100 162/163/99
f 162/163/99 163/164/100 164/165/101
f 165/166/2 166/167/102 167/168/103
f 166/167/102 168/169/103 167/168/103
f 167/168/103 168/169/103 169/170/103
f 170/171/2 171/172/104 172/173/105
f 171/172/104 173/174/55 172/173/105
f 172/173/105 173/174/55 174/175/55
f 175/176/2 176/177/106 177/178/107
f 176/177/106 178/179/108 177/178/107
f 177/178/107 178/179/108 179/180/109
f 180/181/2 181/182/110 182/183/111
f 181/182/110 183/184/112 182/183/111
f 182/183/111 183/184/112 184/185/113
f 185/186/2 186/187/114 187/188/115
f 186/187/114 188/189/116 187/188/115
f 187/188/115 188/189/116 189/190/117
f 188/189/116 190/191/118 189/190/117
f 189/190/117 190/191/118 191/192/119
f 192/193/2 193/194/120 194/195/121
f 193/194/120 195/196/121 194/195/121
f 194/195/121 195/196/121 196/197/121
f 197/198/2 198/199/122 199/200/123
f 198/199/122 200/201/124 199/200/123
f 199/200/123 200/201/124 201/202/125
f 202/203/2 203/204/126 204/205/127
f 203/204/126 205/206/128 204/205/127
f 204/205/127 205/206/128 206/207/129
f 207/208/2 208/209/130 209/210/131
f 208/209/130 210/211/132 209/210/131
f 209/210/131 210/211/132 211/212/133
f 212/213/2 213/214/134 214/215/135
f 213/214/134 215/216/136 214/215/135
f 214/215/135 215/216/136 216/217/137
f 217/218/2 218/219/138 219/220/139
f 218/219/138 220/221/140 219/220/139
f 219/220/139 220/221/140 221/222/141
f 222/223/2 223/224/142 224/225/143
f 223/224/142 225/226/144 224/225/143
f 224/225/143 225/226/144 226/227/145
f 225/226/144 227/228/146 226/227/145
f 226/227/145 227/228/146 228/229/147
f 229/230/2 230/231/148 231/232/149
f 230/231/148 232/233/150 231/232/149
f 231/232/149 232/233/150 233/234/151
f 234/235/2 235/236/152 236/237/153
f 235/236/152 237/238/154 236/237/153
f 236/237/153 237/238/154 238/239/155
f 237/238/154 239/240/156 238/239/155
f 238/239/155 239/240/156 240/241/157
f 239/240/156 241/242/158 240/241/157
f 240/241/157 241/242/158 242/243/159
f 241/242/158 243/244/160 242/243/159
f 242/243/159 243/244/160 244/245/161
f 245/246/2 246/247/162 247/248/163
f 246/247/162 248/249/164 247/248/163
f 247/248/163 248/249/164 249/250/165
f 250/251/2 251/252/166 252/253/167
f 251/252/166 253/254/168 252/253/167
f 252/253/167 253/254/168 254/255/169
f 253/254/168 255/256/170 254/255/169
f 254/255/169 255/256/170 256/257/171
f 255/256/170 257/258/172 256/257/171
f 578/259/173 577/260/173 258/261/174
f 259/262/2 260/263/175 261/264/176
f 260/263/175 262/265/177 261/264/176
f 261/264/176 262/265/177 263/266/178
f 264/267/2 265/268/179 266/269/180
f 265/268/179 267/270/181 266/269/180
f 266/269/180 267/270/181 268/271/182
f 267/270/181 269/272/183 268/271/182
f 268/271/182 269/272/183 270/273/184
f 269/272/183 271/274/185 270/273/184
f 272/275/186 274/276/187 273/277/188
f 273/277/188 274/276/187 275/278/189
f 275/278/189 274/276/187 276/279/190
f 276/279/190 274/276/187 277/280/191
f 277/280/191 274/276/187 278/281/192
f 278/281/192 274/276/187 279/282/193
f 279/282/193 274/276/187 280/283/194
f 280/283/194 274/276/187 281/284/195
f 281/284/195 274/276/187 282/285/196
f 282/285/196 274/276/187 283/286/197
f 283/286/197 274/276/187 284/287/198
f 274/276/187 272/275/186 284/287/198
f 285/288/199 286/289/199 287/290/199
f 288/291/2 289/292/200 290/293/201
f 289/292/200 291/294/202 290/293/201
f 290/293/201 291/294/202 292/295/203
f 291/294/202 293/296/204 292/295/203
f 292/295/203 293/296/204 294/297/205
f 293/296/204 295/298/206 294/297/205
f 296/299/207 297/300/207 298/301/207
f 299/302/2 300/303/208 301/304/209
f 300/303/208 302/305/210 301/304/209
f 301/304/209 302/305/210 303/306/211
f 302/305/210 304/307/212 303/306/211
f 303/306/211 304/307/212 305/308/213
f 306/309/2 307/310/214 308/311/215
f 307/310/214 309/312/216 308/311/215
f 308/311/215 309/312/216 310/313/217
f 309/312/216 311/314/218 310/313/217
f 310/313/217 311/314/218 312/315/219
f 313/316/2 314/317/220 315/318/221
f 314/317/220 316/319/222 315/318/221
f 315/318/221 316/319/222 317/320/223
f 316/319/222 318/321/224 317/320/223
f 317/320/223 318/321/224 319/322/225
f 318/321/224 320/323/226 319/322/225
f 319/322/225 320/323/226 321/324/227
f 320/323/226 322/325/228 321/324/227
f 321/324/227 322/325/228 323/326/229
f 322/325/228 324/327/230 323/326/229
f 323/326/229 324/327/230 325/328/231
f 324/327/230 326/329/232 325/328/231
f 325/328/231 326/329/232 327/330/233
f 328/331/234 329/332/235 338/333/236
f 329/332/235 330/334/237 338/333/236
f 330/334/237 331/335/238 338/333/236
f 331/335/238 332/336/239 338/333/236
f 332/336/239 333/337/240 338/333/236
f 333/337/240 334/338/241 338/333/236
f 334/338/241 335/339/242 338/333/236
f 335/339/242 336/340/243 338/333/236
f 336/340/243 337/341/244 338/333/236
f 337/341/244 339/342/245 338/333/236
f 339/342/245 340/343/246 338/333/236
f 338/333/236 340/343/246 328/331/234
f 353/344/247 341/345/248 343/346/249
f 341/345/248 342/347/250 343/346/249
f 342/347/250 344/348/251 343/346/249
f 344/348/251 345/349/252 343/346/249
f 345/349/252 346/350/253 343/346/249
f 346/350/253 347/351/254 343/346/249
f 347/351/254 348/352/255 343/346/249
f 348/352/255 349/353/256 343/346/249
f 349/353/256 350/354/257 343/346/249
f 350/354/257 351/355/258 343/346/249
f 351/355/258 352/356/259 343/346/249
f 343/346/249 352/356/259 353/344/247
f 354/357/260 355/358/261 359/359/262
f 355/358/261 356/360/263 359/359/262
f 356/360/263 357/361/264 359/359/262
f 357/361/264 358/362/265 359/359/262
f 358/362/265 360/363/266 359/359/262
f 360/363/266 361/364/267 359/359/262
f 361/364/267 362/365/268 359/359/262
f 362/365/268 363/366/269 359/359/262
f 363/366/269 364/367/270 359/359/262
f 364/367/270 365/368/271 359/359/262
f 365/368/271 366/369/272 359/359/262
f 359/359/262 366/369/272 354/357/260
f 367/370/2 368/371/273 369/372/274
f 368/371/273 370/373/275 369/372/274
f 369/372/274 370/373/275 371/374/276
f 370/373/275 372/375/277 371/374/276
f 371/374/276 372/375/277 373/376/278
f 372/375/277 374/377/279 373/376/278
f 373/376/278 374/377/279 375/378/280
f 374/377/279 376/379/281 375/378/280
f 375/378/280 376/379/281 377/380/282
f 376/379/281 378/381/283 377/380/282
f 377/380/282 378/381/283 379/382/284
f 378/381/283 380/383/285 379/382/284
f 379/382/284 380/383/285 381/384/286
f 380/383/285 382/385/287 381/384/286
f 381/384/286 382/385/287 383/386/288
f 382/385/287 384/387/289 383/386/288
f 383/386/288 384/387/289 385/388/290
f 384/387/289 386/389/291 385/388/290
f 387/390/292 388/391/292 389/392/292
f 388/391/292 390/393/292 389/392/292
f 389/392/292 390/393/292 391/394/292
f 390/393/292 392/395/292 391/394/292
f 393/396/293 394/397/294 395/398/295
f 394/397/294 396/399/296 395/398/295
f 395/398/295 396/399/296 397/400/297
f 396/399/296 398/401/298 397/400/297
f 399/402/299 400/403/300 401/404/301
f 400/403/300 402/405/302 401/404/301
f 401/404/301 402/405/302 403/406/303
f 402/405/302 404/407/304 403/406/303
f 403/406/303 404/407/304 405/408/305
f 404/407/304 406/409/306 405/408/305
f 405/408/305 406/409/306 407/410/307
f 406/409/306 408/411/308 407/410/307
f 409/412/309 410/413/310 411/414/311
f 410/413/310 412/415/312 411/414/311
f 411/414/311 412/415/312 413/416/313
f 412/415/312 414/417/314 413/416/313
f 413/416/313 414/417/314 415/418/315
f 414/417/314 416/419/316 415/418/315
f 415/418/315 416/419/316 417/420/317
f 416/419/316 418/421/318 417/420/317
f 417/420/317 418/421/318 419/422/319
f 418/421/318 420/423/320 419/422/319
f 419/422/319 420/423/320 421/424/321
f 422/63/33 423/425/322 63/64/34
f 63/64/34 423/425/322 424/426/323
f 423/425/322 425/427/324 424/426/323
f 424/426/323 425/427/324 426/428/325
f 425/427/324 427/429/326 426/428/325
f 426/428/325 427/429/326 428/430/327
f 427/429/326 429/431/328 428/430/327
f 428/430/327 429/431/328 430/432/329
f 429/431/328 431/433/330 430/432/329
f 430/432/329 431/433/330 432/434/331
f 431/433/330 433/435/331 432/434/331
f 432/434/331 433/435/331 434/436/332
f 433/435/331 435/437/333 434/436/332
f 434/436/332 435/437/333 436/438/334
f 435/437/333 437/439/335 436/438/334
f 436/438/334 437/439/335 438/440/336
f 437/439/335 439/441/337 438/440/336
f 438/440/336 439/441/337 440/442/338
f 439/441/337 441/443/339 440/442/338
f 440/442/338 441/443/339 442/444/340
f 441/443/339 443/445/341 442/444/340
f 442/444/340 443/445/341 64/65/33
f 443/445/341 422/446/33 64/65/33
f 444/447/342 445/448/343 446/449/344
f 445/448/343 447/450/345 446/449/344
f 446/449/344 447/450/345 448/451/346
f 447/450/345 449/452/347 448/451/346
f 448/451/346 449/452/347 450/453/348
f 449/452/347 451/454/349 450/453/348
f 450/453/348 451/454/349 452/455/350
f 451/454/349 453/456/351 452/455/350
f 454/457/352 455/458/353 456/459/354
f 455/458/353 457/460/355 456/459/354
f 456/459/354 457/460/355 458/461/356
f 457/460/355 459/462/357 458/461/356
f 458/461/356 459/462/357 460/463/358
f 461/464/359 462/465/360 484/466/361
f 484/466/361 462/465/360 463/467/360
f 462/465/360 464/468/362 463/467/360
f 463/467/360 464/468/362 465/469/363
f 464/468/362 466/470/364 465/469/363
f 465/469/363 466/470/364 467/471/365
f 466/470/364 468/472/366 467/471/365
f 467/471/365 468/472/366 469/473/367
f 468/472/366 470/474/368 469/473/367
f 469/473/367 470/474/368 471/475/369
f 470/474/368 472/476/370 471/475/369
f 471/475/369 472/476/370 473/477/371
f 472/476/370 474/478/372 473/477/371
f 473/477/371 474/478/372 475/479/372
f 474/478/372 476/480/373 475/479/372
f 475/479/372 476/480/373 477/481/374
f 476/480/373 478/482/375 477/481/374
f 477/481/374 478/482/375 479/483/376
f 478/482/375 480/484/377 479/483/376
f 479/483/376 480/484/377 481/485/378
f 480/484/377 482/486/379 481/485/378
f 481/485/378 482/486/379 483/487/380
f 482/486/379 461/464/359 483/487/380
f 483/487/380 461/464/359 484/466/361
f 485/488/381 486/489/382 487/490/382
f 487/490/382 486/489/382 488/491/383
f 486/489/382 489/492/384 488/491/383
f 488/491/383 489/492/384 490/493/385
f 489/492/384 491/494/386 490/493/385
f 490/493/385 491/494/386 492/495/387
f 491/494/386 493/496/388 492/495/387
f 492/495/387 493/496/388 494/497/389
f 493/496/388 495/498/390 494/497/389
f 494/497/389 495/498/390 496/499/391
f 495/498/390 497/500/392 496/499/391
f 496/499/391 497/500/392 498/501/393
f 497/500/392 499/502/393 498/501/393
f 498/501/393 499/502/393 500/503/394
f 499/502/393 501/504/395 500/503/394
f 500/503/394 501/504/395 502/505/396
f 501/504/395 503/506/397 502/505/396
f 502/505/396 503/506/397 504/507/398
f 503/506/397 505/508/399 504/507/398
f 504/507/398 505/508/399 506/509/400
f 505/508/399 507/510/401 506/509/400
f 506/509/400 507/510/401 508/511/402
f 507/510/401 485/488/381 508/511/402
f 508/511/402 485/488/381 487/490/382
f 509/512/403 510/513/404 511/514/405
f 510/513/404 512/515/406 511/514/405
f 511/514/405 512/515/406 513/516/407
f 512/515/406 514/517/408 513/516/407
f 513/516/407 514/517/408 515/518/207
f 514/517/408 516/519/409 515/518/207
f 515/518/207 516/519/409 517/520/207
f 516/519/409 518/521/207 517/520/207
f 519/522/410 520/523/411 521/524/412
f 520/523/411 522/525/413 521/524/412
f 521/524/412 522/525/413 523/526/414
f 522/525/413 524/527/415 523/526/414
f 525/528/416 526/529/417 527/530/418
f 526/529/417 528/531/419 527/530/418
f 527/530/418 528/531/419 529/532/420
f 528/531/419 530/533/421 529/532/420
f 531/534/422 532/535/422 534/536/423
f 532/535/422 533/537/423 534/536/423
f 533/537/423 536/538/424 534/536/423
f 534/536/423 536/538/424 535/539/424
f 535/539/424 536/538/424 537/540/425
f 536/538/424 538/541/425 537/540/425
f 538/541/425 540/542/426 537/540/425
f 537/540/425 540/542/426 539/543/426
f 539/543/426 540/542/426 541/544/427
f 540/542/426 542/545/427 541/544/427
f 543/546/428 544/547/429 548/548/430
f 544/547/429 545/549/431 548/548/430
f 545/549/431 546/550/432 548/548/430
f 546/550/432 547/551/433 548/548/430
f 547/551/433 549/552/434 548/548/430
f 549/552/434 550/553/435 548/548/430
f 550/553/435 551/554/436 548/548/430
f 551/554/436 552/555/437 548/548/430
f 552/555/437 553/556/438 548/548/430
f 553/556/438 554/557/439 548/548/430
f 554/557/439 555/558/440 548/548/430
f 548/548/430 555/558/440 543/546/428
f 578/259/173 258/261/174 556/559/441
f 258/261/174 557/560/442 556/559/441
f 556/559/441 557/560/442 558/561/443
f 557/560/442 559/562/444 558/561/443
f 558/561/443 559/562/444 560/563/445
f 559/562/444 561/564/446 560/563/445
f 560/563/445 561/564/446 562/565/447
f 561/564/446 563/566/448 562/565/447
f 562/565/447 563/566/448 564/567/449
f 563/566/448 565/568/450 564/567/449
f 564/567/449 565/568/450 566/569/450
f 565/568/450 567/570/451 566/569/450
f 566/569/450 567/570/451 568/571/452
f 567/570/451 569/572/453 568/571/452
f 568/571/452 569/572/453 570/573/454
f 569/572/453 571/574/455 570/573/454
f 570/573/454 571/574/455 572/575/456
f 571/574/455 573/576/457 572/575/456
f 572/575/456 573/576/457 574/577/458
f 573/576/457 575/578/459 574/577/458
f 574/577/458 575/578/459 576/579/460
f 575/578/459 577/260/173 576/579/460
f 576/579/460 577/260/173 578/580/173
f 591/581/461 579/582/462 582/583/463
f 579/582/462 580/584/464 582/583/463
f 580/584/464 581/585/465 582/583/463
f 581/585/465 583/586/466 582/583/463
f 583/586/466 584/587/467 582/583/463
f 584/587/467 585/588/468 582/583/463
f 585/588/468 586/589/469 582/583/463
f 586/589/469 587/590/470 582/583/463
f 587/590/470 588/591/471 582/583/463
f 588/591/471 589/592/472 582/583/463
f 589/592/472 590/593/473 582/583/463
f 582/583/463 590/593/473 591/581/461
f 592/594/474 597/595/475 593/596/476
f 593/596/476 597/595/475 594/597/477
f 594/597/477 597/595/475 595/598/478
f 595/598/478 597/595/475 596/599/479
f 596/599/479 597/595/475 598/600/480
f 598/600/480 597/595/475 599/601/481
f 599/601/481 597/595/475 600/602/482
f 600/602/482 597/595/475 601/603/483
f 601/603/483 597/595/475 602/604/484
f 602/604/484 597/595/475 603/605/485
f 603/605/485 597/595/475 604/606/486
f 597/595/475 592/594/474 604/606/486
o STrolleyGrid
v 0.258398 0.234999 -0.053762
v 0.166485 0.241264 0.602650
v 0.168185 0.266573 0.588486
v -0.180229 0.518650 0.610618
v -0.180229 0.518650 0.610618
v -0.178768 0.543175 0.632566
v -0.165320 0.266573 0.588488
v -0.165576 0.230605 0.611033
v -0.263431 0.571353 -0.130803
v -0.263431 0.571353 -0.130803
v -0.258936 0.601231 -0.156498
v -0.180229 0.518650 0.610618
v -0.178768 0.543175 0.632566
v -0.159748 0.241263 0.602650
v -0.159748 0.241263 0.602650
v -0.178768 0.543175 0.632566
v -0.160668 0.266573 0.588488
v -0.176047 0.518650 0.610618
v -0.259327 0.571353 -0.130803
v -0.235409 0.234999 -0.053761
v -0.176047 0.518650 0.610618
v -0.160668 0.266573 0.588488
v -0.165320 0.266573 0.588488
v -0.245951 0.234999 -0.053761
v -0.176047 0.518650 0.610618
v -0.263431 0.571353 -0.130803
v -0.178768 0.543175 0.632566
v -0.178768 0.543175 0.632566
v -0.258936 0.601231 -0.156498
v -0.176047 0.518650 0.610618
v -0.259327 0.571353 -0.130803
v 0.275878 0.601231 -0.156500
v 0.275878 0.601231 -0.156500
v -0.258936 0.601231 -0.156498
v 0.245010 0.560999 -0.156333
v -0.215543 0.564801 -0.155842
v -0.178768 0.543175 0.632566
v -0.178768 0.543175 0.632566
v 0.185316 0.543176 0.632567
v -0.146917 0.515821 0.632473
v 0.153467 0.515821 0.632197
v 0.166485 0.241264 0.602650
v 0.166485 0.241264 0.602650
v 0.168185 0.266573 0.588486
v 0.185316 0.543176 0.632567
v 0.184463 0.518650 0.610617
v 0.171949 0.230605 0.611034
v 0.171949 0.230605 0.611034
v 0.185316 0.543176 0.632567
v 0.173148 0.266573 0.588486
v 0.187221 0.518650 0.610617
v 0.185316 0.543176 0.632567
v 0.185316 0.543176 0.632567
v 0.275878 0.601231 -0.156500
v 0.187221 0.518650 0.610617
v 0.275108 0.571353 -0.130805
v -0.215543 0.564801 -0.151844
v -0.215543 0.564801 -0.151844
v -0.258936 0.601231 -0.156498
v 0.245010 0.560999 -0.151356
v 0.275878 0.601231 -0.156500
v 0.153467 0.515821 0.629236
v 0.153467 0.515821 0.629236
v 0.185316 0.543176 0.632567
v -0.146917 0.515821 0.628957
v -0.178768 0.543175 0.632566
v 0.217836 0.250616 -0.078346
v 0.245010 0.560999 -0.156333
v -0.181627 0.252382 -0.079504
v -0.215543 0.564801 -0.155842
v 0.150854 0.229391 0.587191
v 0.239473 0.197230 -0.051751
v -0.144481 0.229394 0.587190
v -0.222663 0.197230 -0.051750
v -0.215446 0.208893 -0.044761
v 0.231976 0.208893 -0.044761
v -0.139288 0.240088 0.579524
v 0.146025 0.240086 0.579525
v 0.153467 0.515821 0.632197
v 0.138774 0.266596 0.610498
v -0.146917 0.515821 0.632473
v -0.132221 0.266597 0.610970
v 0.168185 0.266573 0.588486
v 0.258398 0.234999 -0.053762
v 0.184463 0.518650 0.610617
v 0.272265 0.571353 -0.130805
v 0.275108 0.571353 -0.130805
v 0.261292 0.234999 -0.053762
v 0.187221 0.518650 0.610617
v 0.173148 0.266573 0.588486
v 0.272265 0.571353 -0.130805
v 0.272265 0.571353 -0.130805
v 0.275878 0.601231 -0.156500
v 0.184463 0.518650 0.610617
v 0.185316 0.543176 0.632567
v 0.153467 0.515821 0.629236
v -0.146917 0.515821 0.628957
v 0.138774 0.266596 0.607167
v -0.132221 0.266597 0.606693
v 0.217836 0.250616 -0.073475
v -0.181627 0.252382 -0.072317
v 0.245010 0.560999 -0.151356
v -0.215543 0.564801 -0.151844
v -0.258936 0.601231 -0.156498
v -0.258936 0.601231 -0.156498
v -0.229596 0.208052 -0.069376
v -0.259327 0.571353 -0.130803
v -0.229596 0.208052 -0.069376
v -0.235409 0.234999 -0.053761
v -0.159748 0.241263 0.602650
v -0.165320 0.266573 0.588488
v -0.165320 0.266573 0.588488
v -0.165576 0.230605 0.611033
v -0.250260 0.234999 -0.053761
v -0.256513 0.196363 -0.077130
v -0.263431 0.571353 -0.130803
v -0.258936 0.601231 -0.156498
v -0.258936 0.601231 -0.156498
v -0.258936 0.601231 -0.156498
v -0.215543 0.564801 -0.151844
v -0.229596 0.208052 -0.069376
v -0.181627 0.252382 -0.072317
v 0.255944 0.208053 -0.069378
v 0.217836 0.250616 -0.073475
v 0.275878 0.601231 -0.156500
v 0.245010 0.560999 -0.151356
v 0.185316 0.543176 0.632567
v 0.185316 0.543176 0.632567
v 0.153467 0.515821 0.629236
v 0.166485 0.241264 0.602650
v 0.138774 0.266596 0.607167
v -0.159748 0.241263 0.602650
v -0.132221 0.266597 0.606693
v -0.178768 0.543175 0.632566
v -0.146917 0.515821 0.628957
v 0.255944 0.208053 -0.069378
v 0.166485 0.241264 0.602650
v -0.139288 0.240088 0.579524
v -0.159748 0.241263 0.602650
v -0.215446 0.208893 -0.044761
v -0.229596 0.208052 -0.069376
v 0.231976 0.208893 -0.044761
v 0.146025 0.240086 0.579525
v 0.171949 0.230605 0.611034
v -0.144481 0.229394 0.587190
v -0.165576 0.230605 0.611033
v -0.222663 0.197230 -0.051750
v -0.247376 0.196363 -0.077132
v 0.239473 0.197230 -0.051751
v 0.264185 0.196363 -0.077132
v 0.150854 0.229391 0.587191
v -0.235409 0.234999 -0.053761
v -0.160668 0.266573 0.588488
v -0.159748 0.241263 0.602650
v -0.146917 0.515821 0.632473
v -0.178768 0.543175 0.632566
v -0.132221 0.266597 0.610970
v -0.165576 0.230605 0.611033
v 0.138774 0.266596 0.610498
v 0.171949 0.230605 0.611034
v 0.153467 0.515821 0.632197
v 0.185316 0.543176 0.632567
v -0.258936 0.601231 -0.156498
v -0.215543 0.564801 -0.155842
v -0.247376 0.196363 -0.077132
v -0.181627 0.252382 -0.079504
v 0.264185 0.196363 -0.077132
v 0.217836 0.250616 -0.078346
v 0.275878 0.601231 -0.156500
v 0.245010 0.560999 -0.156333
v 0.173148 0.266573 0.588486
v 0.171949 0.230605 0.611034
v 0.261292 0.234999 -0.053762
v 0.264185 0.196363 -0.077132
v 0.275108 0.571353 -0.130805
v 0.275878 0.601231 -0.156500
v 0.166485 0.241264 0.602650
v 0.258398 0.234999 -0.053762
v 0.255944 0.208053 -0.069378
v 0.272265 0.571353 -0.130805
v 0.255944 0.208053 -0.069378
v 0.275878 0.601231 -0.156500
vt 0.090820 -0.947266
vt 0.939453 -1.051758
vt 0.909180 -0.943359
vt 0.909180 -0.943359
vt 0.909180 -0.943359
vt 0.939453 -1.051758
vt 0.090820 -0.947266
vt 0.058594 -1.052734
vt 0.909180 -0.943359
vt 0.909180 -0.943359
vt 0.939453 -1.051758
vt 0.090820 -0.947266
vt 0.058594 -1.051758
vt 0.939453 -1.051758
vt 0.939453 -1.051758
vt 0.058594 -1.051758
vt 0.909180 -0.943359
vt 0.090820 -0.947266
vt -0.077148 -0.991211
vt 10.925781 -0.048828
vt 1.045898 4.874023
vt 10.631836 4.336914
vt 10.631836 4.336914
vt 10.925781 -0.048828
vt 1.045898 4.874023
vt -0.077148 -0.991211
vt 0.939453 -1.051758
vt 0.939453 -1.051758
vt 0.058594 -1.051758
vt 0.909180 -0.943359
vt 0.090820 -0.947266
vt 0.058594 -1.051758
vt 0.058594 -1.051758
vt 0.939453 -1.051758
vt 0.090820 -0.947266
vt 0.909180 -0.943359
vt 0.058594 -1.051758
vt 0.058594 -1.051758
vt 0.939453 -1.051758
vt 0.090820 -0.947266
vt 0.909180 -0.943359
vt 0.939453 -1.051758
vt 0.939453 -1.051758
vt 0.909180 -0.943359
vt 0.058594 -1.051758
vt 0.090820 -0.947266
vt 0.058594 -1.052734
vt 0.058594 -1.052734
vt 0.939453 -1.051758
vt 0.090820 -0.947266
vt 0.909180 -0.943359
vt 0.058594 -1.051758
vt 0.058594 -1.051758
vt 0.939453 -1.051758
vt 0.090820 -0.947266
vt 0.909180 -0.943359
vt 0.090820 -0.947266
vt 0.090820 -0.947266
vt 0.058594 -1.051758
vt 0.909180 -0.943359
vt 0.939453 -1.051758
vt 0.090820 -0.947266
vt 0.090820 -0.947266
vt 0.058594 -1.051758
vt 0.909180 -0.943359
vt 0.939453 -1.051758
vt 5.304688 2.078125
vt -0.293945 2.078125
vt 5.742188 -2.533203
vt -0.684570 -2.533203
vt 5.765625 6.570312
vt 1.059570 6.595703
vt 6.747070 -0.954102
vt 0.405273 -0.954102
vt 0.405273 -0.954102
vt 1.130859 6.595703
vt 6.747070 -0.954102
vt 5.765625 6.570312
vt 5.190430 -1.505859
vt -0.348633 -1.515625
vt 4.987305 3.686523
vt -0.070312 3.686523
vt 10.631836 4.336914
vt 10.925781 -0.048828
vt 1.045898 4.874023
vt -0.077148 -0.991211
vt -0.077148 -0.991211
vt 10.925781 -0.048828
vt 1.045898 4.874023
vt 10.631836 4.336914
vt 0.090820 -0.947266
vt 0.090820 -0.947266
vt 0.058594 -1.051758
vt 0.909180 -0.943359
vt 0.939453 -1.051758
vt 5.190430 -1.505859
vt 4.987305 3.686523
vt -0.348633 -1.515625
vt -0.070312 3.686523
vt 5.304688 2.078125
vt 5.742188 -2.533203
vt -0.293945 2.078125
vt -0.684570 -2.533203
vt 0.939453 -1.051758
vt 0.939453 -1.051758
vt 0.058594 -1.051758
vt 0.909180 -0.943359
vt 0.058594 -1.051758
vt 0.090820 -0.947266
vt 0.939453 -1.051758
vt 0.090820 -0.947266
vt 0.090820 -0.947266
vt 0.058594 -1.050781
vt 0.909180 -0.943359
vt 0.939453 -1.051758
vt 0.090820 -0.947266
vt 0.058594 -1.051758
vt 0.939453 -1.051758
vt 0.939453 -1.051758
vt 0.909180 -0.943359
vt 0.058594 -1.051758
vt 0.090820 -0.947266
vt 0.939453 -1.051758
vt 0.909180 -0.943359
vt 0.058594 -1.050781
vt 0.090820 -0.947266
vt 0.939453 -1.051758
vt 0.939453 -1.051758
vt 0.909180 -0.943359
vt 0.058594 -1.051758
vt 0.090820 -0.947266
vt 0.939453 -1.051758
vt 0.909180 -0.943359
vt 0.058594 -1.051758
vt 0.090820 -0.947266
vt 0.003906 -1.485352
vt 0.003906 -1.485352
vt 0.003906 -1.485352
vt 0.003906 -1.485352
vt 0.003906 -1.485352
vt 0.003906 -1.485352
vt 0.003906 -1.485352
vt 0.003906 -1.485352
vt 0.003906 -1.485352
vt 0.003906 -1.485352
vt 0.003906 -1.485352
vt 0.003906 -1.485352
vt 0.003906 -1.485352
vt 0.003906 -1.485352
vt 0.003906 -1.485352
vt 0.003906 -1.485352
vt 0.090820 -0.947266
vt 0.909180 -0.943359
vt 0.939453 -1.051758
vt 0.909180 -0.943359
vt 0.939453 -1.051758
vt 0.090820 -0.947266
vt 0.058594 -1.051758
vt 0.909180 -0.943359
vt 0.939453 -1.051758
vt 0.090820 -0.947266
vt 0.058594 -1.051758
vt 0.058594 -1.051758
vt 0.090820 -0.947266
vt 0.939453 -1.051758
vt 0.909180 -0.943359
vt 0.058594 -1.051758
vt 0.090820 -0.947266
vt 0.939453 -1.051758
vt 0.909180 -0.943359
vt 0.090820 -0.947266
vt 0.058594 -1.050781
vt 0.909180 -0.943359
vt 0.939453 -1.051758
vt 0.090820 -0.947266
vt 0.058594 -1.051758
vt 0.939453 -1.051758
vt 0.090820 -0.947266
vt 0.058594 -1.051758
vt 0.909180 -0.943359
vt 0.058594 -1.051758
vt 0.939453 -1.051758
vn -0.9903 -0.0110 -0.1386
vn 0.0000 0.0000 1.0000
vn -0.7849 -0.0566 0.6170
vn -0.9909 -0.0667 0.1166
vn -0.9972 -0.0382 -0.0645
vn -0.9968 -0.0372 -0.0707
vn -0.7521 0.1978 0.6287
vn -0.9623 0.2411 0.1253
vn -0.9947 -0.0246 0.0994
vn -0.9947 -0.0293 0.0989
vn 0.3557 0.0210 0.9343
vn 0.9966 0.0557 0.0597
vn 0.9974 0.0587 0.0409
vn 0.9966 0.0554 0.0617
vn 0.9930 0.0458 -0.1083
vn 0.9913 0.0633 -0.1156
vn 0.9926 0.0508 -0.1104
vn 0.9904 0.0708 -0.1187
vn -0.9904 -0.0533 0.1270
vn -0.9913 -0.0448 0.1234
vn -0.9926 -0.0309 0.1176
vn -0.9930 -0.0252 0.1152
vn 0.5191 0.0983 0.8490
vn 0.9877 -0.1025 -0.1177
vn 0.9797 0.1806 -0.0864
vn 0.9862 -0.1152 -0.1190
vn 0.0000 -0.0058 1.0000
vn -0.0011 -0.0177 -0.9998
vn -0.0000 -0.0046 -1.0000
vn -0.0012 -0.0194 -0.9998
vn 0.0000 -0.0010 1.0000
vn 0.0008 -0.0133 0.9999
vn 0.0000 -0.0038 1.0000
vn 0.0009 -0.0146 0.9999
vn -0.3610 0.0228 0.9322
vn -0.9980 0.0631 -0.0081
vn -0.9971 0.0672 -0.0340
vn -0.9970 0.0676 -0.0368
vn 0.3728 -0.0156 0.9277
vn 0.9880 -0.0657 0.1395
vn 0.9991 -0.0426 -0.0085
vn 0.9842 -0.0692 0.1628
vn 0.4761 -0.0112 0.8793
vn 0.9895 0.0758 0.1225
vn 0.9934 -0.0217 0.1125
vn 0.9891 0.0802 0.1229
vn 0.0000 0.0773 0.9970
vn 0.0000 0.1267 0.9919
vn 0.0000 0.1268 0.9919
vn 0.0025 0.3273 -0.9449
vn 0.0008 0.1212 -0.9926
vn 0.0000 0.1304 -0.9915
vn 0.0000 0.1308 -0.9914
vn 0.0017 -0.2438 -0.9698
vn -0.0012 -0.2400 -0.9707
vn -0.0003 -0.2412 -0.9705
vn -0.0030 -0.2376 -0.9713
vn 0.0000 -0.9987 0.0503
vn 0.0000 0.9987 -0.0499
vn 0.0009 -0.0868 0.9962
vn 0.0013 -0.0863 0.9962
vn 0.0013 -0.0864 0.9962
vn 0.0017 -0.0858 0.9963
vn -0.9868 0.0762 -0.1423
vn -0.9892 0.0575 -0.1346
vn -0.9922 0.0268 -0.1218
vn -0.9931 0.0142 -0.1166
vn 0.9930 -0.0140 0.1167
vn 0.9899 -0.0512 0.1322
vn 0.9923 -0.0248 0.1212
vn 0.9880 -0.0673 0.1389
vn -0.8744 0.0178 0.4848
vn -0.9930 0.0248 -0.1156
vn -0.9866 0.1255 -0.1040
vn -0.9864 0.1272 -0.1038
vn 0.0009 0.0881 -0.9961
vn 0.0013 0.0885 -0.9961
vn 0.0013 0.0886 -0.9960
vn 0.0017 0.0891 -0.9960
vn 0.0039 0.2430 0.9700
vn 0.0026 0.2447 0.9696
vn 0.0021 0.2453 0.9694
vn 0.0010 0.2468 0.9691
vn 0.2871 0.0302 0.9574
vn 0.0318 0.0033 0.9995
vn 0.9852 0.1036 0.1363
vn 0.7179 0.1536 0.6790
vn 0.9814 0.1873 0.0421
vn 0.9558 0.2715 -0.1127
vn -0.7440 0.0650 0.6649
vn -0.9882 0.0862 0.1267
vn -0.9819 0.0483 0.1829
vn -0.9857 0.0519 0.1602
vn -0.9754 -0.0487 -0.2148
vn -0.9721 -0.0507 -0.2290
vn 0.0277 0.0751 0.9968
vn 0.0675 0.2221 0.9727
vn -0.0682 0.1558 0.9854
vn -0.0732 0.1455 0.9866
vn 0.0637 0.1501 0.9866
vn 0.0614 0.1551 0.9860
vn -0.1184 0.2473 0.9616
vn -0.1723 0.2539 0.9518
vn 0.0208 0.0989 0.9949
vn 0.0161 0.0971 -0.9951
vn -0.0355 0.1310 -0.9907
vn -0.0375 0.1350 -0.9901
vn 0.0290 0.1277 -0.9914
vn 0.0242 0.1292 -0.9913
vn -0.0265 0.0887 -0.9957
vn -0.0383 0.0866 -0.9955
vn -0.0080 0.9991 -0.0422
vn -0.0008 0.9987 -0.0502
vn -0.0007 0.9987 -0.0502
vn 0.0004 0.9987 -0.0504
vn 0.0007 0.9987 -0.0504
vn 0.0181 0.9988 -0.0446
vn 0.0092 0.9992 -0.0394
vn -0.0098 0.9990 -0.0436
vn 0.0081 -0.9991 0.0424
vn 0.0005 -0.9987 0.0503
vn 0.0007 -0.9987 0.0504
vn -0.0002 -0.9987 0.0505
vn -0.0005 -0.9987 0.0505
vn -0.0093 -0.9990 0.0432
vn -0.0082 -0.9991 0.0421
vn 0.0100 -0.9990 0.0438
vn 0.9930 -0.0278 -0.1142
vn -0.0745 -0.0901 0.9931
vn -0.0523 -0.0865 0.9949
vn 0.0339 -0.0334 0.9988
vn 0.0363 -0.0310 0.9988
vn -0.0518 -0.0333 0.9981
vn -0.0404 -0.0311 0.9987
vn 0.0411 -0.0713 0.9966
vn 0.0492 -0.0707 0.9963
vn -0.1485 -0.1943 -0.9696
vn -0.1245 -0.1970 -0.9724
vn 0.0648 -0.1411 -0.9879
vn 0.0719 -0.1256 -0.9894
vn -0.0876 -0.0986 -0.9912
vn -0.0864 -0.1050 -0.9907
vn 0.2305 -0.2479 -0.9409
vn 0.3302 -0.2571 -0.9082
vn 0.9898 0.0506 0.1333
vn 0.9899 0.0476 0.1333
vn 0.9907 -0.0071 0.1355
vn 0.9913 -0.0081 0.1309
vn 0.9996 -0.0291 -0.0002
vn 0.9995 -0.0298 -0.0046
vn -0.9759 0.1690 -0.1382
vn -0.9935 0.1089 -0.0318
vn -0.7489 0.0935 0.6560
vn -0.9940 0.0268 -0.1056
vn -0.0322 0.0008 0.9995
vn -0.9937 0.0262 -0.1093
usemtl STrolleyGrid
s 1
f 605/607/487 606/608/487 607/609/487
f 608/610/488 609/611/489 610/612/490
f 609/611/489 611/613/491 610/612/490
f 610/612/490 611/613/491 612/614/492
f 613/615/488 614/616/493 615/617/494
f 614/616/493 616/618/495 615/617/494
f 615/617/494 616/618/495 617/619/496
f 618/620/488 619/621/497 620/622/498
f 619/621/497 621/623/499 620/622/498
f 620/622/498 621/623/499 622/624/500
f 623/625/501 625/626/502 624/627/503
f 624/627/503 625/626/502 626/628/504
f 627/629/505 629/630/506 628/631/507
f 628/631/507 629/630/506 630/632/508
f 631/633/488 632/634/509 633/635/510
f 632/634/509 634/636/511 633/635/510
f 633/635/510 634/636/511 635/637/512
f 636/638/488 637/639/513 638/640/514
f 637/639/513 639/641/515 638/640/514
f 638/640/514 639/641/515 640/642/516
f 641/643/488 642/644/517 643/645/518
f 642/644/517 644/646/519 643/645/518
f 643/645/518 644/646/519 645/647/520
f 646/648/488 647/649/521 648/650/522
f 647/649/521 649/651/523 648/650/522
f 648/650/522 649/651/523 650/652/524
f 651/653/488 652/654/525 653/655/526
f 652/654/525 654/656/527 653/655/526
f 653/655/526 654/656/527 655/657/528
f 656/658/488 657/659/529 658/660/530
f 657/659/529 659/661/531 658/660/530
f 658/660/530 659/661/531 660/662/532
f 661/663/488 662/664/533 663/665/534
f 662/664/533 664/666/535 663/665/534
f 663/665/534 664/666/535 665/667/535
f 666/668/488 667/669/536 668/670/537
f 667/669/536 669/671/538 668/670/537
f 668/670/537 669/671/538 670/672/539
f 671/673/540 673/674/541 672/675/542
f 672/675/542 673/674/541 674/676/543
f 675/677/544 677/678/544 676/679/544
f 676/679/544 677/678/544 678/680/544
f 679/681/545 681/682/545 680/683/545
f 680/683/545 681/682/545 682/684/545
f 683/685/546 685/686/547 684/687/548
f 684/687/548 685/686/547 686/688/549
f 687/689/550 689/690/551 688/691/552
f 688/691/552 689/690/551 690/692/553
f 691/693/554 693/694/555 692/695/556
f 692/695/556 693/694/555 694/696/557
f 695/697/488 696/698/558 697/699/559
f 696/698/558 698/700/560 697/699/559
f 697/699/559 698/700/560 699/701/561
f 700/702/562 702/703/563 701/704/564
f 701/704/564 702/703/563 703/705/565
f 704/706/566 706/707/567 705/708/568
f 705/708/568 706/707/567 707/709/569
f 708/710/488 709/711/570 710/712/571
f 709/711/570 711/713/572 710/712/571
f 710/712/571 711/713/572 712/714/573
f 711/713/572 713/715/574 712/714/573
f 712/714/573 713/715/574 714/716/575
f 715/717/488 716/718/576 717/719/577
f 716/718/576 718/720/578 717/719/577
f 717/719/577 718/720/578 719/721/579
f 718/720/578 720/722/580 719/721/579
f 719/721/579 720/722/580 721/723/581
f 722/724/488 723/725/582 724/726/583
f 723/725/582 725/727/584 724/726/583
f 724/726/583 725/727/584 726/728/585
f 725/727/584 727/729/586 726/728/585
f 726/728/585 727/729/586 728/730/587
f 727/729/586 729/731/588 728/730/587
f 728/730/587 729/731/588 730/732/589
f 731/733/488 732/734/590 733/735/591
f 732/734/590 734/736/592 733/735/591
f 733/735/591 734/736/592 735/737/593
f 734/736/592 736/738/594 735/737/593
f 735/737/593 736/738/594 737/739/595
f 736/738/594 738/740/596 737/739/595
f 737/739/595 738/740/596 739/741/597
f 740/742/598 747/743/599 741/744/600
f 747/743/599 742/745/601 741/744/600
f 741/744/600 742/745/601 743/746/602
f 742/745/601 744/747/603 743/746/602
f 743/746/602 744/747/603 745/748/604
f 744/747/603 746/749/605 745/748/604
f 745/748/604 746/749/605 740/742/598
f 746/749/605 747/743/599 740/742/598
f 754/750/606 748/751/607 755/752/608
f 755/752/608 748/751/607 749/753/609
f 748/751/607 750/754/610 749/753/609
f 749/753/609 750/754/610 751/755/611
f 750/754/610 752/756/612 751/755/611
f 751/755/611 752/756/612 753/757/613
f 752/756/612 754/750/606 753/757/613
f 753/757/613 754/750/606 755/752/608
f 756/758/614 757/759/614 758/760/614
f 759/761/615 760/762/616 761/763/617
f 760/762/616 762/764/618 761/763/617
f 761/763/617 762/764/618 763/765/619
f 762/764/618 764/766/620 763/765/619
f 763/765/619 764/766/620 765/767/621
f 764/766/620 766/768/622 765/767/621
f 767/769/623 768/770/624 769/771/625
f 768/770/624 770/772/626 769/771/625
f 769/771/625 770/772/626 771/773/627
f 770/772/626 772/774/628 771/773/627
f 771/773/627 772/774/628 773/775/629
f 772/774/628 774/776/630 773/775/629
f 775/777/631 776/778/632 777/779/633
f 776/778/632 778/780/634 777/779/633
f 777/779/633 778/780/634 779/781/635
f 778/780/634 780/782/636 779/781/635
f 781/783/637 782/784/638 783/785/639
f 782/784/638 784/786/640 783/785/639
f 783/785/639 784/786/640 785/787/641
f 784/786/640 786/788/642 785/787/641
